<?xml version="1.0" standalone="no"?>
<!DOCTYPE svg PUBLIC "-//W3C//DTD SVG 20010904//EN"
 "http://www.w3.org/TR/2001/REC-SVG-20010904/DTD/svg10.dtd">
<svg version="1.0" xmlns="http://www.w3.org/2000/svg"
 width="1456.000000pt" height="1336.000000pt" viewBox="0 0 1456.000000 1336.000000"
 preserveAspectRatio="xMidYMid meet">

<g transform="translate(0.000000,1336.000000) scale(0.100000,-0.100000)"
fill="#000000" stroke="none">
<path d="M0 6680 l0 -6680 7280 0 7280 0 0 6680 0 6680 -7280 0 -7280 0 0
-6680z m3588 6379 c2 -13 -1 -40 -7 -61 -13 -41 -50 -60 -80 -41 -36 22 -19
127 23 143 27 11 60 -10 64 -41z m107 37 c32 -23 21 -117 -16 -137 -11 -6 -32
-8 -45 -5 -22 6 -24 12 -24 60 0 47 4 57 26 75 31 25 35 25 59 7z m6130 0 c32
-23 21 -117 -16 -137 -11 -6 -32 -8 -45 -5 -22 6 -24 12 -24 60 0 47 4 57 26
75 31 25 35 25 59 7z m138 -61 c-2 -52 -24 -85 -58 -85 -30 0 -45 19 -45 56 0
73 42 117 85 89 16 -10 20 -23 18 -60z m-6653 57 c0 -4 -11 -24 -25 -45 l-26
-37 26 0 c20 0 27 6 32 30 7 39 27 39 21 0 -2 -16 0 -32 6 -35 7 -3 7 -7 -1
-11 -7 -3 -13 -14 -13 -25 0 -10 -4 -19 -10 -19 -5 0 -10 9 -10 20 0 16 -7 20
-35 20 -42 0 -43 9 -10 67 23 38 45 56 45 35z m160 -2 c0 -5 -16 -10 -35 -10
-44 0 -47 -21 -5 -37 57 -22 29 -97 -34 -91 -17 2 -30 8 -28 13 2 6 14 9 27 7
16 -2 27 4 35 18 10 19 8 23 -19 33 -30 11 -37 29 -25 61 7 18 84 23 84 6z
m6150 0 c0 -16 -64 -140 -72 -140 -14 0 -9 19 17 70 14 27 25 52 25 55 0 3
-13 5 -30 5 -16 0 -30 5 -30 10 0 6 20 10 45 10 25 0 45 -4 45 -10z m100 0 c0
-5 -13 -10 -30 -10 -39 0 -39 -20 1 -42 24 -14 29 -22 24 -40 -9 -31 -33 -48
-67 -48 -19 0 -28 5 -28 16 0 11 6 14 20 9 23 -7 50 10 50 31 0 8 -14 17 -31
21 -25 5 -30 10 -25 27 3 12 6 27 6 34 0 7 15 12 40 12 22 0 40 -4 40 -10z
m-8524 -145 c5 -13 278 -15 2366 -15 2098 0 2362 2 2372 15 10 14 21 14 100
-1 87 -16 137 -14 254 13 16 4 22 1 22 -11 0 -15 300 -16 3610 -16 3202 0
3610 2 3610 15 0 18 4 18 110 -3 l85 -17 3 -187 c2 -123 -1 -188 -8 -188 -6 0
-10 64 -10 181 l0 182 -42 -7 c-131 -19 -138 -19 -138 -2 0 15 -271 16 -3605
16 -3353 0 -3605 -1 -3613 -17 -9 -15 -17 -15 -80 -5 -39 7 -78 12 -86 12 -14
0 -16 -24 -16 -185 l0 -185 3810 0 c3756 0 3809 0 3820 -19 14 -27 14 -10975
0 -11002 -11 -19 -93 -19 -6375 -19 l-6365 0 0 -611 0 -612 45 7 c25 3 65 9
88 12 48 7 61 -5 50 -46 -4 -16 -11 -20 -32 -16 -14 2 -56 10 -94 16 l-67 12
0 616 c0 574 -1 616 -18 628 -13 10 -65 13 -209 14 -192 0 -193 0 -197 23 -36
169 -36 177 9 177 40 0 40 0 20 -90 -24 -110 -41 -100 170 -100 l185 0 0 4640
0 4640 -185 0 c-211 0 -194 10 -170 -100 20 -90 20 -90 -20 -90 -41 0 -42 6
-21 118 12 65 12 85 -2 163 -8 49 -13 92 -9 95 7 7 56 9 63 2 2 -3 -3 -40 -11
-84 -8 -43 -15 -82 -15 -86 0 -5 83 -8 185 -8 l185 0 0 849 c0 742 2 850 15
861 12 10 15 46 15 205 l0 192 83 15 c107 20 107 20 113 3z m12628 -447 c-2
-3 -13 -6 -24 -5 -24 2 -18 13 9 13 11 0 18 -4 15 -8z m266 5 c0 -5 -28 -7
-62 -5 -107 5 -117 9 -25 11 48 0 87 -2 87 -6z m-13485 -13 c-3 -5 1 -46 10
-91 8 -45 15 -83 15 -85 0 -2 -16 -4 -35 -4 -45 0 -46 10 -10 168 3 12 10 22
16 22 6 0 7 -4 4 -10z m13559 -79 c9 -49 16 -92 16 -95 0 -3 -16 -6 -35 -6
-27 0 -35 4 -35 17 0 36 25 173 31 173 4 0 14 -40 23 -89z m-17 -8034 c-1
-1453 -2 -264 -2 2643 0 2907 1 4096 2 2642 2 -1453 2 -3831 0 -5285z m-13609
7337 c29 -20 30 -69 1 -84 -23 -13 -73 -5 -106 16 -25 16 -30 53 -11 72 17 17
89 15 116 -4z m-108 -133 c0 -40 37 -51 42 -12 3 22 8 26 38 26 39 0 60 -28
52 -70 -7 -37 -20 -30 -24 13 -2 29 -7 37 -23 37 -14 0 -21 -8 -23 -27 -4 -30
-5 -31 -51 -22 -28 6 -31 10 -31 45 0 22 5 39 10 39 6 0 10 -13 10 -29z m70
-117 l40 -36 0 31 c0 17 5 31 10 31 6 0 10 -22 10 -50 0 -27 -3 -50 -6 -50 -4
0 -26 18 -50 40 -53 49 -74 52 -74 10 0 -16 -4 -30 -10 -30 -11 0 -14 73 -3
83 15 16 45 5 83 -29z m13 -100 c71 -10 59 -28 -14 -20 -51 5 -60 4 -55 -9 3
-8 1 -17 -4 -20 -9 -6 -30 34 -30 56 0 6 12 8 28 5 15 -3 48 -8 75 -12z m84
-7417 c-1 -1222 -2 -222 -2 2223 0 2445 1 3445 2 2222 2 -1222 2 -3222 0
-4445z m13481 3136 c18 -11 22 -22 20 -46 -3 -31 -5 -32 -51 -35 -63 -4 -97
17 -97 59 0 22 6 32 23 38 27 11 74 4 105 -16z m-13 -117 c28 -12 35 -20 35
-43 0 -36 -16 -53 -51 -53 -34 0 -81 17 -91 33 -12 18 -9 52 4 65 16 16 61 15
103 -2z m13 -132 c25 -17 29 -55 7 -74 -18 -15 -98 -8 -120 10 -21 17 -19 67
3 80 21 12 78 4 110 -16z m-13 -118 c28 -12 35 -20 35 -43 0 -36 -16 -53 -51
-53 -34 0 -81 17 -91 33 -12 18 -9 52 4 65 16 16 61 15 103 -2z m29 -137 c18
-16 -1 -20 -58 -11 -51 8 -56 7 -56 -10 0 -17 -20 -27 -20 -10 0 4 -3 18 -7
31 l-6 24 69 -8 c38 -4 73 -11 78 -16z m-13565 -304 c46 -23 49 -80 5 -91 -33
-8 -90 3 -109 22 -18 18 -20 55 -3 72 16 16 73 15 107 -3z m-97 -137 c3 -37
38 -55 38 -20 0 28 25 45 55 38 29 -7 44 -37 37 -73 -6 -33 -22 -29 -22 7 0
18 -7 33 -19 39 -22 12 -31 5 -31 -26 0 -18 -6 -23 -24 -23 -45 0 -56 10 -56
51 0 47 17 52 22 7z m128 -148 c0 -14 -5 -13 -60 15 -63 32 -70 31 -70 -5 0
-16 -4 -30 -10 -30 -11 0 -14 83 -4 93 9 8 144 -61 144 -73z m-65 -51 c40 2
63 -9 67 -32 8 -41 -8 -67 -42 -67 -16 0 -30 4 -30 9 0 4 -11 6 -25 3 -32 -6
-55 13 -55 47 0 34 19 54 45 46 11 -4 29 -6 40 -6z m13685 -4221 c-1 -7 -9
-51 -18 -98 l-17 -85 -185 0 -185 -1 179 3 179 3 -6 43 c-3 23 -9 66 -13 95
l-7 52 37 0 c22 0 36 -5 36 -12z m-460 -842 l0 -613 -77 -13 c-43 -6 -90 -14
-105 -17 -26 -5 -28 -3 -28 31 0 42 5 44 118 22 39 -7 72 -11 72 -7 0 3 0 277
0 609 0 401 3 602 10 602 7 0 10 -205 10 -614z m-6370 354 c0 -3 -52 -5 -115
-5 -63 0 -115 2 -115 5 0 2 26 30 57 62 l57 58 58 -57 c32 -32 58 -60 58 -63z
m-32 -109 c40 -44 72 -82 72 -85 0 -3 -70 -6 -156 -6 -86 0 -154 4 -152 9 6
17 143 160 154 161 5 0 43 -36 82 -79z m32 -221 l102 -110 -218 0 -218 0 69
71 c39 40 86 89 105 109 19 21 40 38 46 39 6 0 57 -48 114 -109z m-347 -471
c-1 -8 -4 -40 -8 -71 -5 -42 -11 -58 -21 -58 -15 0 -14 20 2 99 4 18 1 22 -10
18 -9 -4 -18 -2 -21 4 -7 10 33 30 50 25 6 -2 9 -9 8 -17z m115 9 c19 -19 14
-35 -24 -78 l-36 -40 31 0 c17 0 31 -4 31 -10 0 -5 -22 -10 -50 -10 -62 0 -64
13 -10 64 48 46 51 66 10 66 -16 0 -30 5 -30 10 0 14 64 12 78 -2z m120 0 c17
-17 15 -73 -3 -108 -12 -23 -23 -30 -44 -30 -16 0 -34 7 -41 15 -16 19 -5 93
17 117 19 21 53 24 71 6z m122 -3 c17 -21 14 -82 -5 -112 -13 -19 -23 -23 -48
-21 -31 3 -32 5 -35 55 -2 42 1 56 17 72 25 25 54 27 71 6z m133 -15 c13 -37
-9 -109 -36 -119 -31 -12 -56 -2 -63 25 -8 33 4 90 23 109 23 24 66 15 76 -15z
m2940 -157 c-1690 -2 -4456 -2 -6145 0 -1690 1 -308 2 3072 2 3380 0 4762 -1
3073 -2z"/>
<path d="M3516 13064 c-3 -9 -6 -34 -6 -56 0 -32 3 -39 18 -36 19 4 45 69 36
93 -8 20 -40 19 -48 -1z"/>
<path d="M3640 13060 c-13 -24 -10 -82 5 -87 21 -6 35 15 41 60 6 43 5 47 -14
47 -12 0 -26 -9 -32 -20z"/>
<path d="M9770 13054 c-15 -38 -12 -74 6 -81 23 -8 33 7 40 60 6 43 5 47 -15
47 -14 0 -25 -9 -31 -26z"/>
<path d="M9891 13043 c-14 -51 -14 -63 4 -69 26 -10 45 16 45 62 0 37 -3 44
-20 44 -14 0 -22 -11 -29 -37z"/>
<path d="M1200 12904 c0 -18 -8 -17 -142 2 l-48 7 0 -187 0 -186 2555 0 2555
0 0 185 0 185 -27 0 c-16 -1 -57 -7 -92 -14 -60 -13 -64 -13 -68 5 -5 19 -55
19 -2369 19 -2184 0 -2364 -1 -2364 -16z"/>
<path d="M1050 12288 l0 -173 815 0 815 0 0 173 0 172 -815 0 -815 0 0 -172z"/>
<path d="M2760 12295 c0 -91 3 -165 8 -165 4 0 172 41 372 90 201 50 376 90
390 88 20 -2 25 -8 25 -33 l0 -30 -240 -60 c-132 -34 -244 -63 -250 -66 -5 -3
-4 -4 3 -2 8 1 308 3 668 3 l654 0 0 170 0 170 -815 0 -815 0 0 -165z"/>
<path d="M4468 12288 l3 -173 1024 3 1025 2 0 170 0 170 -1027 0 -1028 0 3
-172z"/>
<path d="M6600 12290 l0 -170 385 -2 385 -3 0 173 0 172 -385 0 -385 0 0 -170z"/>
<path d="M7450 12292 l0 -168 133 27 c72 15 222 45 332 67 110 23 409 83 665
135 256 52 474 97 485 100 11 2 -348 5 -797 6 l-818 1 0 -168z"/>
<path d="M9530 12290 l0 -170 495 -2 495 -3 0 173 0 172 -495 0 -495 0 0 -170z"/>
<path d="M10600 12292 l0 -168 663 133 c364 74 736 149 827 167 l165 34 -827
1 -828 1 0 -168z"/>
<path d="M12700 12290 l0 -170 495 -2 495 -3 0 173 0 172 -495 0 -495 0 0
-170z"/>
<path d="M9165 12395 c-143 -30 -505 -104 -804 -165 -300 -60 -547 -113 -550
-117 -3 -3 5 -3 19 0 14 4 386 7 828 7 l802 0 0 165 c0 151 -2 165 -17 164
-10 -1 -135 -25 -278 -54z"/>
<path d="M12335 12395 c-143 -29 -498 -101 -790 -159 -291 -59 -534 -108 -540
-111 -5 -2 358 -4 808 -4 l817 -1 0 165 c0 151 -2 165 -17 164 -10 0 -135 -25
-278 -54z"/>
<path d="M1050 11235 l0 -805 173 0 172 0 -3 805 -2 805 -170 0 -170 0 0 -805z"/>
<path d="M1470 11375 l0 -665 1743 -2 1742 -3 7 -110 c7 -118 24 -188 68 -276
63 -125 182 -230 322 -285 34 -13 63 -24 65 -24 2 0 3 126 3 280 0 271 1 280
20 280 17 0 19 8 22 68 l3 67 478 3 477 2 0 665 0 665 -2475 0 -2475 0 0 -665z
m1030 80 c21 -25 9 -141 -18 -167 -25 -25 -142 -40 -142 -19 0 15 19 148 26
179 4 20 10 22 63 22 40 0 63 -5 71 -15z m256 -17 c-4 -18 -9 -59 -13 -90 -5
-51 -4 -58 11 -58 24 0 14 -24 -11 -28 -36 -5 -43 16 -31 103 13 101 14 105
34 105 13 0 15 -6 10 -32z m584 25 c0 -17 -19 -35 -29 -29 -18 12 -12 36 9 36
11 0 20 -3 20 -7z m72 -31 c-2 -17 2 -22 17 -22 12 0 21 -7 21 -16 0 -10 -7
-14 -22 -12 -21 3 -23 -2 -26 -44 -2 -38 0 -48 12 -48 9 0 16 -7 16 -15 0 -19
-43 -20 -59 -1 -7 8 -9 30 -5 58 4 29 2 48 -5 52 -16 10 -14 26 4 26 8 0 15 8
15 18 0 10 3 22 7 26 13 12 28 -1 25 -22z m761 -1 c-2 -15 3 -21 17 -21 28 0
25 -28 -2 -32 -19 -2 -24 -10 -26 -44 -3 -35 0 -42 18 -47 28 -7 17 -27 -14
-27 -37 0 -47 21 -37 73 6 36 5 47 -5 51 -18 7 -18 26 0 26 8 0 17 12 20 26 8
30 32 26 29 -5z m-1509 -37 c20 -19 20 -56 1 -93 -36 -71 -146 -44 -131 32 11
56 32 77 76 77 22 0 45 -7 54 -16z m254 4 c7 -7 12 -29 12 -50 0 -67 -64 -108
-121 -78 -27 15 -27 92 1 120 23 23 88 28 108 8z m78 -3 c-5 -14 -4 -14 16 0
27 18 59 20 52 3 -2 -7 -19 -20 -37 -28 -22 -10 -33 -23 -35 -40 -6 -52 -13
-70 -28 -70 -13 0 -15 7 -10 33 3 17 8 51 12 75 4 27 12 42 21 42 10 0 13 -6
9 -15z m262 3 c-3 -7 -23 -14 -46 -16 -52 -4 -53 -15 -4 -39 71 -35 49 -86
-35 -81 -62 4 -62 22 0 26 55 4 60 17 14 37 -47 20 -61 39 -47 64 9 17 20 21
66 21 40 0 55 -4 52 -12z m68 -15 c-2 -16 -8 -49 -11 -75 -4 -34 -11 -48 -22
-48 -13 0 -14 10 -8 68 8 76 10 82 31 82 12 0 14 -7 10 -27z m339 -40 c-6 -65
-22 -102 -32 -76 -3 9 -12 9 -31 2 -14 -6 -37 -7 -50 -4 -23 6 -24 10 -20 60
6 73 18 85 85 85 l55 0 -7 -67z m75 58 c0 -5 14 -4 30 2 24 9 35 9 51 -1 15
-10 24 -10 34 -2 8 6 26 10 42 8 28 -3 28 -3 25 -68 -3 -66 -14 -92 -31 -74
-5 5 -6 31 -1 59 4 28 6 53 3 57 -2 5 -17 1 -33 -7 -23 -12 -29 -23 -35 -65
-5 -34 -12 -50 -21 -50 -12 0 -14 11 -8 60 6 56 5 60 -13 60 -28 0 -44 -22
-50 -70 -6 -41 -16 -56 -32 -46 -7 5 3 102 14 134 5 14 25 17 25 3z m348 -29
c3 -27 -1 -34 -23 -42 -14 -6 -37 -10 -51 -10 -15 0 -24 -6 -24 -15 0 -11 12
-15 45 -15 45 0 60 -12 29 -24 -32 -12 -74 -6 -95 15 -17 17 -20 28 -14 57 10
57 31 73 84 70 44 -3 46 -5 49 -36z"/>
<path d="M2399 11448 c0 -2 -6 -38 -13 -80 l-12 -78 30 0 c17 0 36 4 43 8 17
11 33 58 33 98 0 28 -5 36 -26 44 -24 9 -53 13 -55 8z"/>
<path d="M2576 11364 c-3 -9 -6 -29 -6 -45 0 -28 2 -30 32 -27 26 2 33 9 40
33 4 17 6 36 3 43 -7 18 -62 15 -69 -4z"/>
<path d="M2830 11359 c-18 -32 -9 -63 19 -67 30 -5 51 20 51 60 0 24 -4 28
-30 28 -19 0 -33 -7 -40 -21z"/>
<path d="M3604 11383 c-33 -4 -44 -22 -44 -70 0 -26 26 -31 52 -10 12 9 37 92
26 85 -2 0 -17 -3 -34 -5z"/>
<path d="M3996 11364 c-8 -22 -7 -23 32 -17 41 7 44 33 3 33 -18 0 -31 -6 -35
-16z"/>
<path d="M6460 9126 l0 -2916 33 0 32 0 -2 2913 -2 2912 -30 3 -31 3 0 -2915z"/>
<path d="M6570 11988 l0 -53 1148 -1150 c631 -632 1143 -1146 1137 -1142 -5 4
-522 519 -1147 1145 l-1138 1137 0 -290 0 -290 855 -855 c494 -494 855 -848
855 -837 0 9 7 17 15 17 8 0 15 -4 15 -10 0 -5 13 -2 29 8 27 15 31 15 48 0
16 -14 21 -15 43 -3 32 18 35 18 54 0 12 -12 14 -28 9 -63 -12 -98 -47 -109
-36 -12 5 49 3 60 -9 60 -25 0 -49 -36 -55 -80 l-6 -42 454 -454 454 -454 46
0 47 0 4 -112 c7 -177 52 -281 173 -404 65 -66 96 -89 166 -123 47 -22 91 -41
97 -41 9 0 12 75 14 278 l3 277 23 3 c20 3 22 9 22 55 l0 52 -493 493 c-271
270 -495 492 -499 492 -4 0 -8 -15 -10 -32 -2 -21 -8 -33 -18 -33 -11 0 -14
10 -12 40 5 76 13 105 27 105 8 0 15 -5 15 -10 0 -6 13 -4 29 5 21 10 32 12
37 4 7 -12 -12 -29 -32 -29 -6 0 -17 -7 -25 -16 -11 -13 53 -81 482 -510 l494
-494 57 0 58 0 0 233 0 232 -1478 1478 -1477 1477 -238 0 -237 0 0 -52z m2084
-2324 c19 -18 20 -35 6 -86 -12 -43 -40 -62 -81 -56 -25 4 -29 1 -29 -19 0
-22 -24 -42 -36 -31 -4 5 10 122 22 176 4 22 34 32 34 11 0 -5 10 -3 22 5 28
20 43 20 62 0z m154 0 c32 -22 31 -86 -4 -121 -21 -21 -32 -24 -61 -20 -41 7
-53 20 -53 59 0 78 62 122 118 82z"/>
<path d="M8583 9635 c-16 -12 -23 -26 -23 -51 0 -29 3 -34 24 -34 30 0 45 18
48 60 3 40 -15 49 -49 25z"/>
<path d="M8741 9641 c-7 -5 -14 -26 -15 -47 -1 -33 3 -40 20 -42 31 -4 56 25
52 62 -3 33 -29 45 -57 27z"/>
<path d="M8530 10575 l1465 -1465 3 282 2 283 -1182 1182 -1183 1183 -285 0
-285 0 1465 -1465z"/>
<path d="M8825 10870 l1170 -1170 3 282 2 283 -887 887 -888 888 -285 0 -285
0 1170 -1170z"/>
<path d="M9120 11165 l875 -875 3 287 2 287 -588 588 -588 588 -290 0 -289 0
875 -875z"/>
<path d="M9415 11460 c319 -319 581 -580 582 -580 2 0 3 261 3 580 l0 580
-282 0 c-155 0 -279 -2 -277 -5 2 -2 128 -128 278 -279 151 -152 273 -278 270
-281 -3 -3 -133 123 -290 280 l-284 285 -290 0 -290 0 580 -580z"/>
<path d="M10040 10310 l0 -1730 -50 0 -50 0 0 -35 0 -35 50 0 50 0 0 -305 0
-305 40 0 40 0 0 2070 0 2070 -40 0 -40 0 0 -1730z"/>
<path d="M10160 11987 l0 -52 1555 -1555 1555 -1555 0 285 0 285 -1323 1323
-1322 1322 -233 0 -232 0 0 -53z"/>
<path d="M11955 10730 l1310 -1310 3 282 2 283 -1027 1027 -1028 1028 -285 0
-285 0 1310 -1310z"/>
<path d="M12250 11025 l1015 -1015 3 282 2 283 -732 732 -733 733 -285 0 -285
0 1015 -1015z"/>
<path d="M12545 11320 l720 -720 3 282 2 283 -437 437 -438 438 -285 0 -285 0
720 -720z"/>
<path d="M12840 11615 l425 -425 3 287 2 286 -137 139 -137 138 -291 0 -290 0
425 -425z"/>
<path d="M13135 11910 c71 -71 131 -130 132 -130 2 0 3 59 3 130 l0 130 -132
0 -133 0 130 -130z"/>
<path d="M13340 10500 l0 -1540 175 0 175 0 0 1540 0 1540 -175 0 -175 0 0
-1540z"/>
<path d="M10160 11625 l0 -290 837 -837 c721 -722 839 -835 855 -827 41 22 79
-20 64 -69 -4 -11 0 -24 9 -32 13 -11 15 -9 15 13 0 63 48 105 104 91 81 -20
37 -164 -47 -151 -23 3 101 -126 620 -645 l648 -648 3 287 2 288 -1555 1555
-1555 1555 0 -290z m2060 -1960 c0 -9 -8 -18 -17 -21 -39 -12 -48 -23 -58 -69
-6 -27 -17 -51 -24 -53 -11 -4 -13 6 -8 49 4 30 7 64 7 77 0 13 6 22 15 22 8
0 15 -5 15 -10 0 -6 12 -4 28 4 35 19 42 19 42 1z"/>
<path d="M6570 10743 l0 -578 1143 -1142 1142 -1143 42 0 43 0 0 243 0 242
-1180 1180 c-649 649 -1180 1184 -1180 1190 0 5 531 -521 1180 -1170 l1180
-1180 0 118 0 117 168 0 167 0 -485 485 c-475 475 -485 484 -491 454 -8 -35
-14 -43 -28 -35 -6 4 -8 26 -4 54 4 35 1 51 -10 60 -12 10 -15 8 -20 -17 -6
-26 -11 -30 -52 -37 -57 -8 -55 -28 3 -32 43 -3 55 -15 26 -26 -31 -12 -74 -6
-94 14 -23 23 -24 31 -10 82 9 29 18 39 46 48 19 7 43 9 52 5 9 -3 -354 366
-808 820 -454 454 -826 825 -827 825 -2 0 -3 -260 -3 -577z m1568 -1020 c2 -9
-8 -13 -31 -13 l-35 0 -13 -92 c-9 -60 -19 -93 -28 -96 -11 -4 -13 8 -7 69 4
41 10 84 13 97 5 20 1 22 -32 22 -30 0 -35 3 -27 13 15 18 154 17 160 0z"/>
<path d="M10160 11035 l0 -290 559 -559 c499 -498 559 -556 564 -535 13 48 9
59 -24 59 -20 0 -29 4 -26 13 5 17 149 17 155 -1 2 -8 -8 -12 -31 -12 -35 0
-35 0 -42 -57 l-7 -56 981 -981 981 -981 0 290 0 290 -677 677 -677 677 -23
-26 c-19 -19 -31 -24 -58 -21 -30 3 -34 1 -39 -24 -3 -16 -12 -28 -21 -28 -12
0 -15 7 -10 33 3 17 9 59 14 92 5 33 12 67 15 75 4 10 -248 269 -814 835
l-820 819 0 -289z m1307 -1361 c27 -7 38 -36 24 -63 -8 -13 -26 -22 -56 -27
-57 -8 -54 -28 3 -32 43 -3 55 -15 26 -26 -55 -21 -104 7 -104 61 0 69 43 104
107 87z m173 -9 c11 -13 15 -13 41 1 22 11 34 12 50 4 17 -10 20 -18 14 -53
-11 -77 -17 -97 -25 -97 -17 0 -19 17 -11 69 7 42 5 54 -6 58 -23 9 -53 -29
-61 -77 -4 -24 -13 -45 -21 -48 -11 -4 -12 8 -7 62 6 52 5 66 -6 66 -28 -1
-50 -29 -56 -77 -5 -33 -12 -48 -22 -48 -16 0 -17 20 -5 103 4 27 11 42 21 42
8 0 14 -5 14 -11 0 -5 10 -3 22 5 28 20 42 20 58 1z"/>
<path d="M11400 9630 c-10 -18 -8 -20 24 -20 31 0 53 19 39 34 -14 13 -53 5
-63 -14z"/>
<path d="M10160 10440 l0 -285 1398 -1398 1397 -1397 158 0 157 0 0 128 0 127
-984 984 c-904 904 -985 982 -988 956 -2 -16 -9 -31 -17 -33 -11 -4 -13 5 -9
41 l5 45 -558 558 -559 559 0 -285z"/>
<path d="M1470 10625 l0 -35 1720 0 1720 0 0 35 0 35 -1720 0 -1720 0 0 -35z"/>
<path d="M5500 10625 l0 -35 460 0 460 0 0 35 0 35 -460 0 -460 0 0 -35z"/>
<path d="M5440 10281 c0 -260 1 -269 20 -274 20 -5 20 0 20 263 0 235 -2 269
-16 274 -9 3 -18 6 -20 6 -2 0 -4 -121 -4 -269z"/>
<path d="M1470 6270 l0 -4270 1605 0 1605 0 0 1490 0 1490 -360 0 -360 0 0 80
0 80 1365 0 1365 0 0 281 0 281 65 -4 c131 -8 312 -130 403 -271 36 -56 79
-163 98 -242 6 -27 8 -24 20 35 43 205 208 391 410 460 31 11 77 20 101 20
l43 0 0 -280 0 -280 565 0 565 0 0 280 0 280 43 0 c101 0 268 -88 361 -191 83
-92 131 -194 161 -341 l5 -28 523 1 c384 0 514 3 492 11 -70 25 -145 77 -217
149 -96 97 -160 218 -166 317 l-4 62 276 0 276 0 0 760 0 760 -352 2 -353 3
-3 66 -3 65 -47 13 c-169 45 -325 175 -403 336 -33 69 -44 105 -47 153 l-4 62
251 0 251 0 0 280 0 280 -35 0 -35 0 0 -275 0 -275 -45 0 c-92 0 -269 91 -350
181 -84 93 -165 262 -165 345 l0 24 -135 0 -135 0 0 -365 0 -365 -1265 0
-1265 0 -2 -782 -3 -783 -72 -3 -73 -3 0 2191 0 2190 -455 0 -455 0 -2 -277
-3 -278 -56 0 c-47 0 -73 8 -155 49 -178 89 -299 240 -341 426 l-18 80 -1732
0 -1733 0 0 -4270z m1028 2128 c-3 -7 -23 -14 -46 -16 -55 -4 -74 -32 -70 -99
l3 -48 48 -3 c61 -4 58 -26 -4 -30 -66 -4 -84 14 -83 80 1 55 23 112 46 121 7
3 35 6 61 6 35 1 47 -3 45 -11z m855 -27 c-2 -16 3 -21 22 -21 18 0 23 -4 19
-15 -4 -8 -14 -15 -24 -15 -36 0 -44 -84 -9 -93 27 -7 15 -27 -15 -27 -35 0
-45 19 -37 72 6 35 4 48 -6 52 -17 7 -17 26 1 26 8 0 17 12 20 26 8 30 32 26
29 -5z m288 -21 c10 0 19 -7 19 -15 0 -9 -9 -15 -25 -15 -21 0 -25 -5 -25 -29
0 -16 -3 -36 -6 -45 -4 -12 0 -16 15 -16 12 0 21 -6 21 -15 0 -19 -43 -20 -59
-1 -7 8 -9 31 -5 60 5 31 3 46 -5 46 -6 0 -11 7 -11 15 0 8 7 15 15 15 8 0 15
9 15 19 0 28 24 32 28 4 2 -15 10 -23 23 -23z m-1006 -17 c23 -22 13 -91 -17
-116 -31 -26 -89 -19 -104 11 -15 30 -2 92 22 109 25 18 79 16 99 -4z m75 1
c0 -14 2 -14 22 0 27 20 62 21 77 3 16 -20 -6 -137 -26 -137 -11 0 -13 11 -7
60 6 55 5 60 -12 60 -33 -1 -51 -23 -58 -72 -5 -34 -12 -48 -23 -48 -13 0 -14
9 -9 58 4 31 9 65 12 75 7 21 24 23 24 1z m258 4 c-3 -7 -23 -14 -46 -16 -52
-4 -53 -15 -4 -39 71 -35 49 -86 -35 -81 -62 4 -62 22 0 26 26 2 47 7 47 12 0
6 -17 18 -37 27 -37 18 -50 40 -39 69 7 19 120 21 114 2z m150 0 c32 -32 -6
-78 -65 -78 -25 0 -31 -4 -27 -15 4 -10 20 -15 44 -15 41 0 61 -14 34 -24 -29
-11 -77 -6 -96 11 -29 26 -19 102 16 125 18 12 81 9 94 -4z m155 -3 c-1 -5
-19 -12 -40 -15 -29 -4 -40 -11 -47 -31 -14 -41 -2 -59 40 -59 46 0 41 -24 -7
-28 -36 -3 -66 13 -69 38 -10 75 20 113 83 108 23 -2 41 -7 40 -13z m251 9
c17 -7 21 -41 7 -62 -4 -8 -27 -16 -50 -19 -58 -8 -56 -33 4 -33 45 0 60 -12
29 -24 -33 -13 -81 -6 -99 14 -21 23 -15 82 11 111 17 19 66 25 98 13z m195
-6 c0 -7 -4 -34 -8 -60 -7 -41 -5 -48 9 -48 31 0 53 26 59 71 4 29 11 45 22
47 14 3 15 -5 5 -69 -6 -40 -17 -74 -23 -77 -7 -2 -13 3 -13 12 0 13 -4 13
-30 -2 -23 -13 -34 -14 -47 -6 -15 9 -17 23 -14 70 1 33 5 62 8 67 7 12 33 8
32 -5z m161 -4 c0 -14 2 -14 22 0 12 9 28 16 35 16 20 0 15 -30 -4 -30 -32 -1
-53 -26 -59 -74 -5 -31 -11 -46 -22 -46 -12 0 -13 11 -7 68 4 37 9 70 12 75 8
13 23 7 23 -9z m3796 -1731 c-2 -10 -10 -57 -16 -105 -9 -67 -16 -88 -27 -88
-13 0 -15 11 -9 68 13 127 17 142 38 142 14 0 18 -5 14 -17z m384 -3 c0 -11
-7 -20 -15 -20 -8 0 -15 9 -15 20 0 11 7 20 15 20 8 0 15 -9 15 -20z m170 4
c0 -58 -25 -194 -36 -194 -7 0 -14 6 -17 13 -3 9 -7 9 -20 -1 -9 -7 -28 -12
-44 -10 -27 3 -28 5 -28 59 0 70 15 89 66 89 36 0 40 3 46 30 6 31 33 42 33
14z m70 -4 c0 -11 -7 -20 -15 -20 -8 0 -15 9 -15 20 0 11 7 20 15 20 8 0 15
-9 15 -20z m170 3 c0 -9 -5 -56 -11 -105 -8 -62 -16 -88 -25 -88 -8 0 -14 5
-14 10 0 7 -7 7 -20 0 -12 -6 -33 -10 -48 -8 -26 3 -27 5 -27 62 1 68 17 86
77 86 36 0 38 2 38 30 0 20 5 30 15 30 8 0 15 -8 15 -17z m420 -23 c0 -14 7
-20 21 -20 26 0 20 -24 -8 -28 -14 -2 -23 -13 -27 -34 -9 -47 -8 -55 14 -61
33 -9 23 -29 -12 -25 -33 3 -33 3 -32 58 0 37 -4 58 -14 63 -11 7 -10 12 7 28
12 11 21 24 21 29 0 6 7 10 15 10 8 0 15 -9 15 -20z m-1152 -32 c9 -9 15 -9
24 0 16 16 53 15 67 -2 11 -13 10 -42 -5 -113 -2 -13 -11 -23 -20 -23 -15 0
-15 18 2 98 3 16 0 22 -14 22 -32 0 -62 -29 -62 -60 0 -39 -9 -60 -27 -60 -12
0 -14 8 -10 33 3 17 9 51 12 75 7 44 13 50 33 30z m252 -3 c0 -10 -10 -15 -33
-15 -42 0 -57 -15 -57 -56 0 -30 3 -33 35 -36 50 -4 48 -22 -1 -26 -68 -5 -93
41 -59 108 17 33 27 38 78 39 27 1 37 -3 37 -14z m55 -52 c-8 -77 -10 -83 -31
-83 -10 0 -14 6 -10 18 3 9 8 40 12 67 7 57 11 65 26 65 7 0 8 -22 3 -67z
m248 46 c-1 -8 -4 -40 -8 -71 -5 -43 -10 -58 -22 -58 -13 0 -15 10 -9 67 4 36
9 70 12 75 8 13 29 3 27 -13z m233 -39 c-6 -51 -5 -60 9 -60 36 0 52 19 59 70
5 36 11 50 23 50 13 0 14 -10 8 -67 -7 -70 -20 -98 -33 -76 -6 10 -15 10 -39
1 -16 -6 -38 -8 -48 -4 -15 5 -17 14 -11 68 8 68 12 78 28 78 7 0 8 -20 4 -60z
m170 45 c5 -13 8 -13 27 0 12 8 32 15 44 15 28 0 36 -27 25 -95 -5 -37 -12
-51 -26 -53 -13 -3 -17 1 -13 15 3 10 9 37 12 61 6 37 4 42 -12 42 -33 0 -53
-23 -61 -70 -5 -32 -13 -46 -26 -48 -15 -3 -17 1 -13 25 3 15 9 49 12 76 6 46
20 61 31 32z m-5986 -3042 c0 -5 -7 -56 -16 -115 -15 -98 -19 -107 -38 -106
-11 0 -33 -2 -47 -6 -35 -10 -59 15 -59 60 0 70 45 115 100 101 13 -3 20 0 20
8 0 24 19 65 30 65 5 0 10 -3 10 -7z m-208 -113 c11 -64 14 -108 8 -114 -9 -9
-30 31 -30 55 0 5 -18 9 -39 9 -34 0 -42 -5 -60 -35 -18 -31 -41 -47 -41 -29
0 10 60 134 88 182 39 69 54 55 74 -68z m268 90 c0 -11 -7 -20 -15 -20 -8 0
-15 9 -15 20 0 11 7 20 15 20 8 0 15 -9 15 -20z m230 0 c0 -11 -7 -20 -15 -20
-8 0 -15 9 -15 20 0 11 7 20 15 20 8 0 15 -9 15 -20z m360 16 c0 -16 -14 -36
-26 -36 -14 0 -19 22 -7 33 7 8 33 10 33 3z m-600 -74 c0 -32 -21 -137 -30
-145 -16 -18 -20 14 -9 87 8 52 16 76 25 76 8 0 14 -8 14 -18z m148 6 c15 -15
16 -79 1 -112 -14 -29 -59 -51 -88 -41 -15 4 -21 2 -21 -9 0 -28 -20 -70 -30
-60 -8 8 11 173 26 222 4 16 96 16 112 0z m77 -50 c-9 -79 -22 -115 -36 -101
-7 7 -7 30 1 74 14 80 17 89 31 89 8 0 9 -18 4 -62z m150 52 c4 -6 -9 -10 -32
-10 -40 0 -63 -14 -63 -37 0 -8 12 -13 29 -13 47 0 61 -10 61 -41 0 -45 -60
-74 -114 -53 -32 12 -15 24 34 24 43 0 50 3 50 20 0 15 -7 20 -26 20 -58 0
-79 34 -48 78 12 17 25 22 59 22 24 0 47 -4 50 -10z m150 -5 c0 -5 -16 -11
-35 -13 -49 -5 -60 -18 -60 -68 l0 -44 40 0 c44 0 54 -16 15 -26 -37 -9 -79 9
-85 37 -9 36 6 92 31 112 24 19 94 21 94 2z m57 5 c3 -18 -16 -128 -24 -144
-26 -48 -27 20 -2 132 4 19 24 28 26 12z m156 -2 c25 -21 -3 -168 -29 -152 -5
3 -8 13 -5 22 2 10 7 38 11 65 6 46 6 47 -22 47 -42 0 -49 -10 -59 -74 -5 -33
-15 -61 -21 -64 -16 -5 -16 22 -2 102 l10 61 51 2 c29 1 58 -3 66 -9z m182 0
c-1 -42 -29 -191 -37 -199 -14 -14 -72 -26 -100 -21 -37 6 -26 22 15 22 44 0
57 8 66 37 7 21 6 22 -24 12 -57 -20 -87 34 -60 108 15 40 37 53 92 53 32 0
48 -4 48 -12z"/>
<path d="M2546 8304 c-3 -9 -6 -29 -6 -45 0 -25 4 -29 29 -29 23 0 31 6 40 30
5 17 8 37 5 45 -8 20 -60 19 -68 -1z"/>
<path d="M3033 8305 c-3 -9 -3 -18 0 -21 9 -9 60 11 65 24 6 19 -57 15 -65 -3z"/>
<path d="M3443 8305 c-3 -9 -3 -18 0 -21 11 -11 67 8 67 22 0 20 -59 19 -67
-1z"/>
<path d="M8122 6518 c-7 -7 -12 -27 -12 -45 0 -25 4 -33 18 -33 28 0 49 22 56
58 5 30 4 32 -22 32 -16 0 -33 -5 -40 -12z"/>
<path d="M8360 6504 c-17 -44 -13 -64 14 -64 29 0 44 17 52 58 6 31 5 32 -25
32 -25 0 -34 -6 -41 -26z"/>
<path d="M2590 3390 c-18 -33 -9 -85 15 -88 33 -4 47 13 52 62 6 46 6 46 -25
46 -21 0 -35 -7 -42 -20z"/>
<path d="M2435 3420 c-11 -25 -21 -47 -22 -50 -2 -3 10 -7 27 -8 27 -2 30 1
29 25 -1 16 -4 39 -8 53 -6 23 -8 22 -26 -20z"/>
<path d="M2816 3379 c-13 -65 -9 -79 24 -79 35 0 50 23 50 74 0 34 -2 36 -34
36 -30 0 -34 -4 -40 -31z"/>
<path d="M3569 3383 c-17 -45 -8 -78 22 -81 32 -4 45 12 52 66 l5 42 -34 0
c-28 0 -36 -5 -45 -27z"/>
<path d="M1040 9080 l0 -1270 175 0 175 0 0 1270 0 1270 -175 0 -175 0 0
-1270z"/>
<path d="M6572 9855 l1 -290 846 -843 846 -842 283 2 282 3 -1130 1130 -1130
1130 2 -290z"/>
<path d="M10160 9850 l0 -285 1103 -1103 1102 -1102 283 2 282 3 -1385 1385
-1385 1385 0 -285z"/>
<path d="M8150 9630 c-10 -18 -8 -20 25 -20 28 0 35 4 35 20 0 15 -7 20 -25
20 -14 0 -29 -8 -35 -20z"/>
<path d="M8322 9632 l-23 -18 29 -27 29 -28 7 23 c17 64 1 83 -42 50z"/>
<path d="M11862 9638 c2 -6 10 -14 16 -16 7 -2 10 2 6 12 -7 18 -28 22 -22 4z"/>
<path d="M11993 9638 c-6 -7 -14 -27 -18 -45 -6 -29 -4 -33 19 -39 38 -9 58
12 54 55 -2 28 -8 37 -24 39 -11 2 -25 -3 -31 -10z"/>
<path d="M11827 9629 c-11 -7 -17 -22 -17 -44 0 -30 3 -35 23 -35 45 0 62 43
29 73 -12 11 -22 13 -35 6z"/>
<path d="M6572 9265 l1 -290 551 -548 552 -547 282 2 282 3 -835 835 -835 835
2 -290z"/>
<path d="M10160 9257 l0 -289 804 -804 805 -804 285 2 286 3 -1090 1090 -1090
1090 0 -288z"/>
<path d="M6570 8675 l0 -290 253 -253 252 -252 288 2 287 3 -540 540 -540 540
0 -290z"/>
<path d="M10160 8663 l0 -288 500 -500 c274 -274 498 -501 496 -502 -2 -2
-226 220 -500 493 l-496 496 0 -251 0 -251 -65 0 c-63 0 -65 -1 -65 -25 l0
-25 -251 0 -251 0 6 -26 c19 -76 98 -204 163 -265 58 -56 143 -106 226 -134
l76 -25 878 0 878 0 -795 795 c-437 437 -796 795 -797 795 -2 0 -3 -129 -3
-287z"/>
<path d="M13340 7730 l0 -1160 175 0 175 0 0 1160 0 1160 -175 0 -175 0 0
-1160z"/>
<path d="M8978 8210 l-3 -370 -1202 0 -1203 0 0 -35 0 -35 1245 0 1245 0 2
368 3 367 143 0 142 0 0 38 0 37 -185 0 -185 0 -2 -370z"/>
<path d="M9870 8201 c0 -265 0 -271 20 -271 20 0 20 5 18 267 -3 246 -4 268
-20 271 -17 3 -18 -15 -18 -267z"/>
<path d="M6570 8125 l0 -245 247 0 248 0 -245 245 c-135 135 -246 245 -247
245 -2 0 -3 -110 -3 -245z"/>
<path d="M9520 7850 c0 -20 6 -20 246 -20 228 0 245 1 242 18 -3 16 -24 17
-246 20 -237 2 -242 2 -242 -18z"/>
<path d="M1050 7736 c0 -7 48 -368 70 -536 31 -225 59 -440 124 -925 60 -447
106 -795 125 -935 l19 -135 1 1267 1 1268 -170 -2 c-93 -1 -170 -2 -170 -2z"/>
<path d="M10050 7280 l0 -40 353 -2 352 -3 3 -807 2 -808 35 0 35 0 0 810 0
810 1220 0 1220 0 0 40 0 40 -1610 0 -1610 0 0 -40z"/>
<path d="M10880 6391 l0 -809 -346 6 -347 5 7 -29 c13 -49 68 -151 113 -209
56 -71 141 -134 240 -176 l78 -34 1323 -3 1322 -2 0 1030 0 1030 -1195 0
-1195 0 0 -809z m397 187 c-4 -24 -9 -64 -13 -90 l-7 -48 47 0 c35 0 46 -4 46
-15 0 -13 -11 -15 -57 -13 l-58 3 2 80 c2 98 9 125 30 125 13 0 15 -8 10 -42z
m906 36 c9 -10 -4 -34 -19 -34 -8 0 -14 9 -14 20 0 19 19 27 33 14z m-688 -71
c21 -21 15 -85 -11 -114 -20 -22 -83 -26 -102 -7 -20 20 -15 95 8 118 25 25
82 26 105 3z m75 1 c0 -15 2 -15 25 0 29 19 45 20 45 3 0 -7 -13 -18 -30 -24
-32 -12 -35 -17 -45 -75 -4 -24 -11 -38 -20 -38 -18 0 -18 5 -4 87 6 35 15 63
20 63 5 0 9 -7 9 -16z m210 -5 c19 -35 -11 -69 -61 -69 -55 0 -47 -24 9 -28
29 -2 42 -8 42 -18 0 -18 -90 -20 -108 -2 -20 20 -15 95 8 118 28 28 95 28
110 -1z m66 6 c-5 -14 -4 -14 16 0 29 19 65 19 76 -1 8 -14 10 -14 21 0 17 20
55 21 70 2 11 -13 10 -42 -5 -113 -2 -13 -11 -23 -20 -23 -12 0 -14 10 -8 60
7 63 2 70 -36 50 -13 -7 -21 -26 -26 -60 -4 -34 -11 -50 -21 -50 -12 0 -14 11
-8 60 6 53 5 60 -11 60 -31 0 -54 -30 -54 -72 0 -26 -5 -41 -15 -45 -9 -3 -18
-4 -20 -1 -2 2 1 36 7 76 7 52 14 72 25 72 10 0 13 -6 9 -15z m329 -1 c0 -5
-4 -37 -8 -71 -6 -48 -12 -63 -24 -63 -13 0 -15 10 -9 67 4 36 9 70 12 75 7
11 29 5 29 -8z m67 -3 c-2 -8 6 -7 20 3 53 37 96 5 83 -63 -9 -51 -31 -71 -75
-71 -34 0 -38 -3 -43 -30 -4 -18 -13 -30 -22 -30 -18 0 -18 5 -5 90 17 105 21
121 33 117 7 -3 11 -10 9 -16z m258 4 c0 -11 -11 -15 -43 -15 -61 0 -65 -11
-15 -35 77 -36 60 -85 -29 -85 -69 0 -69 24 0 28 26 2 47 7 47 11 0 4 -18 16
-39 26 -45 20 -56 38 -41 66 9 15 22 19 65 19 42 0 55 -3 55 -15z m64 -1 c-15
-100 -15 -104 1 -104 36 0 53 20 60 70 5 34 11 50 22 50 12 0 13 -11 8 -67 -8
-72 -20 -98 -35 -74 -7 12 -11 12 -24 2 -8 -7 -27 -11 -43 -9 -27 3 -28 4 -26
62 1 33 5 66 8 74 5 14 31 11 29 -4z m169 4 c4 -10 7 -10 18 0 18 16 58 15 65
-2 5 -12 10 -12 35 2 43 25 65 7 62 -49 -3 -63 -11 -89 -28 -89 -12 0 -14 11
-8 60 6 63 1 70 -37 50 -13 -7 -21 -26 -26 -60 -4 -34 -11 -50 -21 -50 -12 0
-14 11 -8 60 7 56 6 60 -13 60 -28 0 -52 -37 -52 -78 0 -20 -6 -35 -15 -39 -9
-3 -18 -4 -20 -1 -9 9 19 148 31 148 7 0 14 -6 17 -12z"/>
<path d="M11411 6511 c-6 -11 -11 -31 -11 -45 0 -22 4 -26 30 -26 24 0 33 6
41 27 14 39 7 58 -23 61 -18 2 -30 -3 -37 -17z"/>
<path d="M11690 6510 c-9 -17 -8 -20 10 -20 26 0 60 17 60 30 0 19 -59 11 -70
-10z"/>
<path d="M12257 6512 c-10 -10 -17 -32 -17 -49 0 -29 2 -30 32 -24 27 6 34 13
39 41 4 19 5 38 3 42 -9 14 -41 8 -57 -10z"/>
<path d="M1042 5901 l3 -1272 168 -2 c156 -2 167 -1 167 16 0 23 -24 211 -55
437 -13 96 -43 315 -65 485 -22 171 -54 409 -70 530 -56 415 -99 740 -121 905
-11 91 -23 167 -25 169 -2 3 -3 -568 -2 -1268z"/>
<path d="M13400 6398 c74 -184 272 -673 280 -693 5 -11 9 157 9 383 l1 402
-164 0 -163 0 37 -92z"/>
<path d="M13341 5928 l-1 -408 166 0 c129 0 165 3 161 13 -3 6 -44 107 -90
222 -84 208 -211 521 -227 560 -5 11 -9 -158 -9 -387z"/>
<path d="M6720 5410 c0 -250 1 -270 18 -270 16 0 17 20 17 270 0 250 -1 270
-17 270 -17 0 -18 -20 -18 -270z"/>
<path d="M7760 5410 c0 -263 0 -270 20 -270 20 0 20 7 20 270 0 263 0 270 -20
270 -20 0 -20 -7 -20 -270z"/>
<path d="M8980 5410 c0 -263 0 -270 20 -270 20 0 20 7 20 270 0 263 0 270 -20
270 -20 0 -20 -7 -20 -270z"/>
<path d="M6780 5391 l0 -281 -27 0 c-28 0 -28 -1 -28 -62 l0 -63 -947 -3 -948
-2 0 -1490 0 -1490 1900 0 1900 0 0 1490 0 1490 -415 0 -415 0 -5 23 c-2 12
-3 41 -1 65 3 40 2 42 -26 42 l-28 0 0 280 c0 233 -2 280 -14 280 -8 0 -56
-21 -106 -46 -155 -78 -258 -201 -309 -368 -12 -37 -21 -83 -21 -101 0 -38 -7
-45 -34 -35 -16 5 -23 23 -32 79 -15 86 -65 196 -123 269 -66 83 -203 175
-298 198 l-23 6 0 -281z m-295 -1921 c0 -10 -13 -14 -44 -15 -34 -1 -46 -5
-52 -20 -13 -33 -11 -35 37 -35 58 0 56 -24 -3 -28 -32 -2 -42 -8 -47 -25 -11
-43 -8 -47 44 -47 53 0 67 -15 24 -26 -39 -10 -98 7 -102 30 -9 43 10 148 29
167 25 25 114 24 114 -1z m68 14 c9 -10 -4 -34 -19 -34 -8 0 -14 6 -14 13 0
22 19 35 33 21z m906 -21 c-2 -66 -25 -187 -36 -191 -7 -2 -13 3 -13 11 0 14
-4 14 -32 0 -44 -22 -62 -8 -66 50 -3 39 1 51 23 73 20 20 34 25 56 22 25 -4
30 -1 36 21 11 50 33 59 32 14z m-754 -112 c-7 -68 -20 -97 -30 -69 -6 14 -10
14 -33 2 -34 -18 -47 -18 -61 0 -18 21 -3 136 17 136 12 0 13 -10 8 -60 -6
-55 -5 -60 12 -60 27 0 49 29 57 75 9 49 14 57 27 49 6 -4 8 -30 3 -73z m143
73 c37 -10 25 -24 -22 -24 -60 0 -65 -14 -14 -42 48 -26 57 -47 32 -72 -12
-12 -30 -16 -62 -14 -62 4 -69 28 -8 28 57 0 68 16 23 35 -43 18 -60 39 -52
64 8 27 54 38 103 25z m162 -9 c11 -13 15 -13 40 0 31 16 55 12 64 -11 6 -14
-9 -108 -20 -125 -14 -23 -23 7 -17 61 6 65 0 72 -36 43 -13 -11 -24 -36 -29
-62 -4 -25 -13 -46 -21 -49 -11 -4 -12 8 -7 62 6 52 5 66 -6 66 -29 -1 -50
-30 -55 -74 -5 -41 -25 -67 -37 -47 -3 4 -1 35 4 67 6 32 10 62 10 67 0 4 7 7
15 7 8 0 15 -5 15 -11 0 -5 10 -3 22 5 28 20 42 20 58 1z m264 -5 c5 -5 9 -29
8 -52 -3 -72 -66 -110 -120 -72 -38 26 -20 125 25 137 24 7 75 -1 87 -13z
m-739 -57 c-6 -65 -18 -94 -31 -80 -3 3 -3 38 1 76 5 54 11 71 22 71 13 0 14
-11 8 -67z"/>
<path d="M7356 3384 c-9 -8 -16 -31 -16 -50 0 -26 4 -34 18 -34 25 0 50 30 58
68 6 29 4 32 -19 32 -14 0 -33 -7 -41 -16z"/>
<path d="M7193 3388 c-31 -39 -24 -88 13 -88 28 0 46 30 42 68 -3 30 -37 42
-55 20z"/>
<path d="M9048 5393 l-3 -278 -27 -3 c-27 -3 -28 -5 -28 -68 0 -44 -4 -64 -12
-64 -7 0 658 -670 1477 -1490 l1490 -1490 290 0 290 0 -667 668 c-644 644
-714 714 -657 664 l26 -23 7 23 c10 38 7 68 -6 68 -27 -1 -48 -29 -57 -74 -10
-52 -17 -64 -30 -50 -6 5 -6 28 -1 54 9 51 6 60 -19 60 -25 0 -41 -20 -41 -53
0 -35 -18 -70 -31 -61 -6 4 -8 28 -3 62 7 64 20 96 35 87 5 -4 7 -11 4 -16 -7
-11 8 -12 19 -2 4 4 -345 359 -776 790 -676 676 -787 783 -812 783 l-29 0 5
103 c4 81 1 116 -14 172 -33 119 -107 229 -203 302 -55 42 -190 113 -214 113
-7 0 -12 -92 -13 -277z m1868 -1914 c9 -15 -12 -27 -41 -24 -26 3 -30 -5 -41
-101 -7 -69 -18 -94 -33 -79 -7 7 -6 38 3 92 7 46 11 85 8 88 -3 2 -15 2 -27
-1 -24 -6 -41 9 -30 26 9 14 152 13 161 -1z m85 -59 c22 -12 25 -52 6 -68 -7
-6 -32 -14 -54 -18 -57 -9 -47 -34 13 -34 53 0 58 -16 8 -26 -72 -13 -108 30
-84 101 16 48 66 69 111 45z"/>
<path d="M10932 3388 c-20 -20 -13 -29 20 -26 40 4 54 38 16 38 -13 0 -29 -5
-36 -12z"/>
<path d="M10180 5630 c0 -19 7 -20 265 -20 258 0 265 1 265 20 0 19 -7 20
-265 20 -258 0 -265 -1 -265 -20z"/>
<path d="M13340 3510 l0 -1930 175 0 175 0 0 1930 0 1930 -175 0 -175 0 0
-1930z"/>
<path d="M4000 5065 l0 -35 358 -2 357 -3 3 -1512 2 -1513 35 0 35 0 0 1515 0
1515 945 0 945 0 0 35 0 35 -1340 0 -1340 0 0 -35z"/>
<path d="M7840 5065 l0 -35 415 0 415 0 0 -1515 0 -1515 35 0 35 0 2 1513 3
1512 103 0 102 0 0 38 0 37 -555 0 -555 0 0 -35z"/>
<path d="M9530 5076 c0 -13 3 -31 6 -40 6 -15 180 -16 1870 -16 l1864 0 0 40
0 40 -1870 0 -1870 0 0 -24z"/>
<path d="M8781 4778 l1 -203 1286 -1287 1287 -1288 285 0 285 0 -1490 1490
-1490 1490 -82 0 -83 0 1 -202z"/>
<path d="M10335 4200 c642 -642 783 -778 800 -774 13 3 27 -1 34 -10 12 -14
15 -14 36 0 15 10 32 13 46 9 21 -7 21 -11 16 -80 -5 -55 -3 -76 7 -84 18 -15
22 -4 31 82 7 62 23 97 33 69 2 -8 12 -7 33 3 46 24 69 6 69 -53 0 -63 -16
-84 -66 -86 -42 -1 -54 -10 -54 -41 0 -13 205 -225 608 -628 l607 -607 290 0
290 0 -697 697 c-677 677 -697 696 -722 685 -20 -9 -26 -19 -26 -45 0 -36 -23
-77 -33 -60 -6 10 10 129 19 145 3 5 10 6 15 2 5 -3 7 -10 4 -15 -7 -11 8 -12
19 -2 4 4 -343 357 -771 785 -428 428 -773 778 -768 778 5 0 358 -348 782
-772 434 -434 781 -773 790 -773 10 0 17 -6 15 -14 -2 -8 301 -319 695 -713
l698 -698 67 0 68 0 0 218 0 217 -1272 1272 -1273 1273 -585 0 -585 0 780
-780z m1253 -786 c40 -27 24 -116 -25 -135 -38 -14 -82 -2 -93 26 -12 32 5 91
33 110 27 19 57 19 85 -1z"/>
<path d="M11515 3384 c-10 -10 -15 -29 -13 -48 3 -27 7 -31 33 -31 26 0 31 5
39 38 8 30 7 40 -5 48 -21 13 -36 11 -54 -7z"/>
<path d="M12005 3720 l1260 -1260 3 284 2 285 -976 975 -976 976 -287 0 -286
0 1260 -1260z"/>
<path d="M12300 4015 l965 -965 3 284 2 285 -680 680 -681 681 -287 0 -287 0
965 -965z"/>
<path d="M12596 4311 l669 -668 3 286 2 286 -382 382 -383 383 -289 0 -290 0
670 -669z"/>
<path d="M12890 4605 l375 -375 3 287 2 287 -87 88 -88 88 -290 0 -289 0 374
-375z"/>
<path d="M13120 4977 c0 -1 34 -36 75 -77 l75 -74 0 77 0 77 -75 0 c-41 0 -75
-1 -75 -3z"/>
<path d="M1047 4543 c-4 -3 -7 -575 -7 -1270 l0 -1263 175 0 175 0 0 1270 0
1270 -168 0 c-93 0 -172 -3 -175 -7z"/>
<path d="M8781 4269 l-2 -284 993 -993 993 -992 283 2 282 3 -1274 1274 -1273
1273 -2 -283z"/>
<path d="M8780 3680 l0 -285 698 -698 697 -697 283 2 282 3 -980 980 -980 980
0 -285z"/>
<path d="M11362 3383 c-11 -10 -22 -33 -26 -50 -5 -31 -4 -33 24 -33 34 0 50
23 50 69 0 36 -17 40 -48 14z"/>
<path d="M8780 3082 l0 -277 403 -403 402 -402 285 0 285 0 -680 680 c-374
374 -683 680 -687 680 -5 0 -8 -125 -8 -278z"/>
<path d="M8780 2385 l-1 -385 393 0 393 0 -385 385 c-212 212 -388 385 -392
385 -3 0 -7 -173 -8 -385z"/>
<path d="M1050 1750 l0 -170 380 0 380 0 0 170 0 170 -380 0 -380 0 0 -170z"/>
<path d="M1890 1755 c0 -102 4 -165 10 -165 5 0 222 43 482 95 260 52 619 125
798 161 179 35 330 67 335 69 6 2 -358 4 -807 4 l-818 1 0 -165z"/>
<path d="M3990 1750 l0 -170 390 0 390 0 0 170 0 170 -390 0 -390 0 0 -170z"/>
<path d="M4850 1750 l0 -170 905 0 905 0 0 170 0 170 -905 0 -905 0 0 -170z"/>
<path d="M6740 1759 c0 -125 3 -160 13 -156 6 3 115 47 241 97 238 97 257 100
264 52 4 -26 -2 -29 -198 -108 l-155 -63 403 -1 402 0 0 170 0 170 -485 0
-485 0 0 -161z"/>
<path d="M7785 1750 l0 -170 1028 0 1027 0 0 170 0 170 -1027 0 -1028 0 0
-170z"/>
<path d="M9918 1755 c-2 -131 0 -165 10 -165 7 0 66 11 130 24 64 13 423 86
797 161 374 75 685 138 690 140 6 2 -358 4 -807 4 l-817 1 -3 -165z"/>
<path d="M11929 1916 c-3 -4 -1204 -249 -1524 -311 l-120 -23 828 -1 827 -1 0
170 c0 94 -1 170 -3 170 -2 0 -6 -2 -8 -4z"/>
<path d="M12030 1750 l0 -170 620 0 620 0 0 170 0 170 -620 0 -620 0 0 -170z"/>
<path d="M3585 1849 c-159 -32 -522 -105 -805 -163 l-515 -105 825 0 825 -1 0
165 c0 159 -1 165 -20 164 -11 0 -150 -27 -310 -60z"/>
<path d="M434 11696 c-10 -25 8 -38 60 -43 42 -5 46 -4 46 15 0 26 -6 30 -58
38 -34 5 -43 3 -48 -10z"/>
<path d="M13974 7066 c-9 -24 7 -37 55 -43 32 -4 42 -2 47 11 9 24 -7 37 -55
43 -32 4 -42 2 -47 -11z"/>
<path d="M13974 6946 c-10 -27 15 -46 62 -46 37 0 44 3 44 19 0 20 -8 24 -68
36 -24 5 -33 3 -38 -9z"/>
<path d="M13970 6811 c0 -25 7 -29 58 -37 34 -5 43 -3 48 11 10 25 -21 45 -68
45 -31 0 -38 -4 -38 -19z"/>
<path d="M13977 6703 c-13 -12 -7 -41 9 -47 9 -3 33 -6 55 -6 40 0 52 17 27
37 -17 14 -83 25 -91 16z"/>
<path d="M440 6260 c-28 -18 2 -45 54 -48 41 -3 46 -1 46 17 0 14 -9 23 -27
27 -16 3 -35 8 -43 10 -8 2 -22 -1 -30 -6z"/>
<path d="M432 5898 c5 -34 38 -37 38 -4 0 20 -5 26 -21 26 -15 0 -20 -5 -17
-22z"/>
<path d="M498 5903 c-7 -27 1 -43 23 -43 16 0 20 6 17 27 -3 32 -33 43 -40 16z"/>
<path d="M7180 411 c-5 -11 -10 -36 -10 -55 0 -29 4 -36 20 -36 22 0 35 38 31
93 -1 23 -28 22 -41 -2z"/>
<path d="M7300 405 c-5 -14 -10 -40 -10 -56 0 -22 5 -29 20 -29 25 0 42 32 38
73 -4 42 -34 49 -48 12z"/>
<path d="M7431 416 c-6 -7 -12 -31 -14 -52 -2 -34 1 -39 20 -42 22 -3 29 10
34 58 5 49 -15 67 -40 36z"/>
</g>
</svg>
