<?xml version="1.0" standalone="no"?>
<!DOCTYPE svg PUBLIC "-//W3C//DTD SVG 20010904//EN"
 "http://www.w3.org/TR/2001/REC-SVG-20010904/DTD/svg10.dtd">
<svg version="1.0" xmlns="http://www.w3.org/2000/svg"
 width="1102.000000pt" height="1006.000000pt" viewBox="0 0 1102.000000 1006.000000"
 preserveAspectRatio="xMidYMid meet">

<g transform="translate(0.000000,1006.000000) scale(0.100000,-0.100000)"
fill="#000000" stroke="none">
<path d="M5488 8565 c-41 -38 -48 -57 -20 -54 40 4 41 1 44 -98 3 -84 5 -98
21 -101 16 -3 17 7 15 139 -2 84 -7 144 -13 145 -5 2 -27 -12 -47 -31z"/>
<path d="M5830 8579 c0 -5 10 -13 21 -20 16 -8 27 -8 45 2 35 18 29 26 -21 26
-25 0 -45 -4 -45 -8z"/>
<path d="M6580 8523 c-30 -6 -60 -31 -60 -50 0 -18 25 -17 40 3 18 21 84 15
88 -9 4 -18 -3 -22 -59 -31 -67 -11 -101 -72 -63 -111 13 -12 32 -15 93 -12
l76 4 1 59 c2 92 -11 130 -48 143 -17 6 -34 10 -37 10 -3 -1 -17 -4 -31 -6z
m66 -127 c3 -8 0 -24 -6 -36 -9 -17 -19 -20 -48 -18 -47 4 -55 30 -15 52 36
19 62 20 69 2z"/>
<path d="M5786 8513 c-3 -4 -6 -51 -6 -105 0 -91 1 -98 20 -98 18 0 68 61 83
103 15 42 33 13 39 -63 2 -23 8 -35 18 -35 12 0 15 18 15 100 0 98 0 100 -23
100 -18 0 -31 -12 -52 -50 -39 -69 -60 -72 -60 -7 0 34 -5 52 -14 55 -8 3 -17
3 -20 0z"/>
<path d="M6128 8509 c-10 -5 -18 -19 -18 -29 0 -24 8 -25 34 -5 24 18 58 19
74 3 20 -20 14 -35 -18 -41 -16 -4 -30 -11 -30 -17 0 -5 14 -10 30 -10 25 0
30 -4 30 -23 0 -50 -56 -64 -87 -22 -13 18 -22 22 -33 15 -13 -8 -12 -13 6
-37 17 -23 30 -29 68 -31 39 -3 51 1 66 18 38 44 38 127 -1 168 -22 24 -89 30
-121 11z"/>
<path d="M6330 8510 c-13 -8 -13 -10 0 -14 8 -3 24 -6 35 -8 18 -3 21 -13 25
-88 4 -67 8 -85 20 -85 12 0 16 18 20 85 5 84 5 85 33 88 15 2 27 9 27 18 0
11 -16 14 -72 14 -40 0 -80 -4 -88 -10z"/>
<path d="M6735 8511 c-3 -5 3 -16 12 -23 10 -7 24 -25 32 -40 12 -24 11 -30
-18 -71 -17 -25 -31 -50 -31 -56 0 -25 32 -8 56 29 34 51 52 51 56 3 4 -55 32
-52 36 5 2 23 7 42 12 42 6 0 21 -18 34 -39 29 -45 44 -57 56 -45 5 5 -4 30
-21 58 -29 47 -30 49 -15 81 9 18 22 35 29 38 9 3 9 8 1 16 -16 17 -37 5 -54
-31 -22 -46 -38 -46 -42 -1 -4 49 -32 53 -36 6 -4 -36 -28 -45 -39 -15 -14 41
-53 66 -68 43z"/>
<path d="M5653 8433 c-9 -3 -10 -10 -3 -24 13 -23 58 -25 86 -4 16 13 17 16 4
25 -16 10 -66 12 -87 3z"/>
<path d="M3536 6908 c-3 -29 -6 -526 -6 -1104 l0 -1052 -22 -6 c-13 -3 -529
-6 -1147 -6 -619 0 -1128 -3 -1133 -8 -4 -4 -7 -678 -6 -1498 l3 -1489 1150
-5 c633 -3 1151 -6 1153 -8 1 -1 2 -143 2 -316 0 -173 3 -321 6 -330 6 -15
253 -16 2698 -16 2080 0 2695 3 2704 12 9 9 12 77 12 243 0 212 2 233 18 248
17 15 58 17 389 17 329 0 372 2 377 16 11 28 7 874 -4 895 -10 18 -25 19 -383
19 -277 0 -376 3 -385 12 -9 9 -12 514 -12 2209 0 1839 -2 2198 -14 2208 -10
8 -208 10 -737 6 -398 -2 -780 -5 -849 -5 -69 1 -953 3 -1966 5 l-1841 5 -7
-52z m5042 5 l332 -4 0 -2202 c0 -1369 4 -2208 10 -2217 8 -13 66 -16 392 -20
l383 -5 0 -415 0 -415 -383 -5 c-326 -4 -384 -7 -392 -20 -6 -8 -10 -122 -10
-257 l0 -243 -2654 0 c-1460 0 -2661 3 -2670 6 -14 5 -16 47 -16 370 l0 364
23 5 c12 3 54 5 92 3 l70 -3 5 -275 c3 -151 7 -276 8 -277 5 -7 2979 -2 2989
5 6 4 13 30 15 57 l3 50 78 3 77 3 0 -29 c0 -16 6 -35 14 -41 10 -8 251 -10
892 -9 l879 3 3 214 c1 138 6 219 13 228 9 10 88 13 390 13 l379 0 15 24 c14
21 16 56 13 230 -2 135 -7 209 -14 216 -8 8 -135 13 -420 15 -225 2 -420 5
-434 6 -14 0 -86 -1 -160 -4 -177 -6 -180 -5 -180 77 0 102 -10 96 166 96 96
0 154 -4 154 -10 0 -16 19 -12 51 11 l29 20 -2 667 c-3 658 -3 667 -23 670
-34 6 -40 20 -46 100 l-6 77 -1 -77 c-2 -65 -5 -79 -21 -88 -25 -13 -810 -14
-831 0 -13 8 -16 69 -20 417 l-5 408 -25 3 c-43 6 -50 20 -50 96 0 39 4 76 8
83 4 6 25 13 47 15 l40 3 5 245 5 245 120 3 c100 2 122 0 131 -13 7 -9 10 -25
7 -35 -5 -17 -14 -20 -63 -20 -99 0 -90 57 -90 -536 l0 -524 25 -10 c13 -5
172 -10 352 -10 181 -1 339 -1 353 -2 51 0 96 5 113 14 16 8 17 44 17 531 l0
523 -37 17 c-26 11 -41 13 -49 6 -7 -6 -34 -9 -61 -7 -46 3 -48 4 -48 33 0 28
3 30 38 33 22 2 51 -1 65 -6 20 -7 35 -5 57 8 l30 17 3 628 c1 432 -1 632 -8
639 -7 7 -146 13 -398 16 l-387 5 -3 55 c-2 30 -8 60 -14 67 -8 10 -62 13
-219 13 l-209 0 -6 24 c-3 13 -4 38 -2 57 l3 34 332 5 c182 3 335 9 340 13 4
5 19 5 33 1 14 -4 175 -9 358 -11z m-1462 -38 c3 -118 2 -114 40 -130 33 -13
35 -17 32 -52 l-3 -38 -272 -5 c-149 -3 -275 -8 -279 -12 -3 -4 -6 -35 -5 -69
2 -96 0 -99 -72 -99 -69 0 -83 6 -88 35 -4 20 -12 20 -1354 20 l-1350 0 -5
-1265 -5 -1265 -80 -3 c-44 -1 -86 2 -92 6 -10 6 -13 314 -13 1453 0 794 0
1447 0 1452 0 4 798 6 1773 5 l1772 -3 1 -30z m344 -65 c0 -20 -5 -20 -147
-18 -131 3 -148 5 -151 21 -3 16 9 17 147 17 145 0 151 -1 151 -20z m458 -144
c2 -47 -1 -67 -8 -64 -7 2 -12 31 -13 71 -3 89 17 82 21 -7z m-65 37 c14 -3
17 -16 17 -64 l0 -59 393 -2 392 -3 3 -174 c2 -152 0 -176 -13 -184 -15 -8
-15 -11 1 -28 15 -17 16 -23 5 -40 -9 -16 -10 -24 0 -35 10 -12 8 -17 -6 -28
-16 -12 -16 -13 -1 -19 20 -8 20 -21 1 -41 -17 -17 -43 -12 -63 12 -15 20 -36
3 -26 -21 7 -20 45 -32 74 -24 11 3 23 0 27 -6 10 -16 13 -126 3 -132 -6 -3
-5 -16 0 -31 6 -14 10 -48 10 -76 0 -28 3 -48 7 -45 4 4 6 205 5 447 -2 433 1
471 30 442 10 -10 12 -191 3 -322 -1 -30 -3 -225 -4 -433 -1 -209 -4 -389 -7
-402 -7 -29 -28 -36 -124 -44 l-75 -6 3 -35 c6 -72 1 -77 -82 -76 -41 1 -77 4
-80 6 -15 16 -16 59 -1 74 14 14 15 19 3 33 -9 11 -15 61 -18 162 -5 139 -6
146 -25 143 -11 -2 -21 -5 -22 -5 -1 -1 -2 -85 -4 -187 -1 -102 -4 -193 -6
-202 -4 -15 -16 -18 -83 -18 -62 0 -79 3 -84 16 -10 27 -7 53 10 62 13 7 13
10 1 20 -22 19 -334 19 -353 1 -11 -12 -14 -59 -14 -236 -1 -250 -5 -268 -56
-243 -38 18 -49 18 -49 0 -1 -36 -15 -40 -125 -40 -136 0 -140 3 -140 105 0
82 -6 105 -26 105 -11 0 -14 -18 -14 -79 0 -44 -4 -91 -10 -105 -9 -26 -11
-26 -115 -26 -79 0 -114 4 -138 17 -26 13 -65 16 -217 17 l-185 1 -2 768 c-2
687 -1 771 13 793 9 13 13 31 10 40 -4 9 -4 25 -1 35 6 18 22 19 266 19 238 0
260 1 265 18 3 9 10 26 14 37 5 11 11 37 15 57 3 23 12 38 23 41 23 5 553 6
575 0z m-645 -115 c-4 -10 -66 -13 -268 -13 -202 0 -264 3 -267 13 -4 9 54 12
267 12 213 0 271 -3 268 -12z m-2290 -150 c8 -8 15 -8 26 2 19 15 46 6 46 -16
0 -9 -8 -23 -17 -30 -14 -10 -15 -15 -6 -25 16 -16 22 -10 38 38 13 37 14 38
62 38 47 0 48 -1 51 -33 4 -39 25 -39 30 0 3 27 24 38 74 38 37 0 58 -10 58
-26 0 -8 6 -23 12 -34 12 -18 13 -17 23 18 l11 37 543 3 c391 1 548 -1 557 -9
12 -9 14 -199 14 -1117 -1 -871 2 -1107 12 -1113 7 -4 62 -8 123 -8 60 0 118
0 128 0 14 -1 17 -11 17 -58 0 -31 -5 -72 -12 -90 -10 -28 -9 -38 5 -62 16
-27 17 -104 17 -1022 0 -707 -4 -996 -11 -1006 -8 -9 -40 -13 -105 -13 -87 0
-94 -1 -94 -20 0 -19 7 -20 95 -20 84 0 95 -2 105 -20 7 -12 9 -95 8 -227 l-3
-207 -25 -13 c-13 -6 -28 -21 -32 -33 l-8 -20 -592 4 c-326 2 -605 6 -620 9
-16 2 -32 5 -38 6 -5 0 -10 19 -10 40 0 22 5 43 10 46 6 3 10 10 10 16 0 5 -4
9 -10 9 -5 0 -10 -7 -10 -16 0 -12 -6 -15 -22 -11 -28 8 -68 -27 -68 -58 0
-19 -7 -23 -46 -29 -26 -3 -64 -6 -85 -6 l-38 0 2 42 c3 57 -21 63 -25 6 -3
-41 -5 -43 -38 -47 -19 -2 -308 -5 -641 -7 -496 -4 -608 -2 -617 9 -12 14 -37
1911 -26 1929 3 4 52 8 110 8 97 0 104 1 104 20 0 18 -8 20 -107 22 l-108 3
-3 150 c-3 176 2 217 26 213 26 -5 28 38 3 45 -19 4 -21 13 -21 71 0 54 3 67
19 76 11 5 23 24 27 42 11 47 11 50 2 78 -12 33 -2 70 20 70 12 0 10 4 -8 13
-23 12 -26 20 -31 102 -9 119 -20 2191 -12 2199 4 3 250 6 548 6 396 0 544 -3
553 -12z m1705 -1 c3 -8 6 -364 6 -791 0 -428 3 -782 6 -787 4 -5 88 -9 190
-9 101 0 190 -3 199 -6 13 -5 16 -22 16 -83 0 -86 -8 -101 -56 -101 -17 0 -37
-6 -43 -13 -8 -10 -12 -343 -13 -1198 l-3 -1184 -75 0 -75 0 -2 980 c-3 907
-4 981 -20 993 -11 8 -59 12 -150 12 l-133 0 0 1093 c0 602 3 1097 7 1100 13
14 141 8 146 -6z m2049 -1213 c38 -20 35 -32 -14 -54 -32 -14 -37 -19 -21 -19
28 -1 51 -39 32 -52 -21 -13 -31 -11 -55 12 l-22 21 -12 -23 c-11 -19 -10 -24
6 -36 10 -7 24 -13 31 -13 7 0 13 -5 13 -11 0 -6 -7 -9 -15 -5 -8 3 -28 0 -45
-5 -25 -9 -30 -16 -29 -42 l1 -32 11 28 c12 29 50 38 61 15 5 -10 7 -10 12 0
17 37 59 -9 48 -53 -3 -14 -2 -31 3 -38 6 -6 11 -33 12 -59 1 -38 -3 -50 -19
-60 -25 -16 -25 -24 0 -31 16 -4 20 -14 20 -46 0 -23 -5 -50 -11 -60 -9 -13
-9 -27 -2 -47 5 -16 9 -92 9 -169 l-1 -140 -33 -3 c-28 -3 -33 -7 -29 -23 7
-24 -35 -37 -74 -22 -18 7 -31 7 -37 1 -18 -18 -56 -4 -62 22 -5 22 -7 23 -13
7 -5 -12 -13 -16 -26 -12 -10 3 -23 -1 -29 -8 -8 -9 -35 -14 -77 -15 -62 0
-67 1 -78 25 l-12 26 -5 -24 c-6 -24 -7 -24 -130 -24 l-125 0 -3 102 c-2 85 1
109 17 140 10 21 22 60 26 86 7 46 7 47 -19 47 l-26 0 0 90 c0 51 4 90 10 90
5 0 19 -14 32 -30 29 -40 99 -83 170 -105 55 -17 58 -17 122 5 79 26 155 93
189 167 55 122 11 265 -108 349 -21 15 -27 25 -22 39 7 17 17 17 154 11 96 -5
156 -12 175 -22z m-552 9 c-23 -9 -81 -53 -127 -97 l-43 -40 0 61 c0 77 8 83
110 82 41 0 68 -3 60 -6z m152 -46 c4 -7 8 -47 8 -89 0 -65 3 -79 19 -87 26
-15 31 -5 31 64 0 34 3 65 6 68 16 16 65 -31 94 -89 34 -70 37 -105 13 -166
-49 -127 -175 -201 -286 -168 -40 11 -118 57 -125 73 -2 4 -9 13 -15 20 -55
58 -68 170 -30 242 34 64 88 112 151 134 59 21 120 20 134 -2z m-938 -353 c8
-20 8 -122 0 -151 -6 -22 -10 -23 -124 -23 -98 0 -119 3 -124 16 -8 21 -8 159
1 167 3 4 59 7 124 7 97 0 118 -3 123 -16z m301 -79 l0 -90 -114 -3 c-75 -2
-118 1 -127 9 -18 15 -19 150 -2 167 9 9 47 12 128 10 l115 -3 0 -90z m-4127
-51 l22 -6 -2 -302 -3 -301 -717 -3 -718 -2 -6 -26 c-4 -14 -1 -49 6 -78 8
-37 10 -129 6 -341 -3 -159 -6 -310 -5 -335 1 -25 2 -115 3 -200 l1 -155 -138
-5 c-140 -5 -163 -12 -150 -47 4 -10 35 -13 132 -13 88 0 133 -4 145 -13 16
-12 17 -28 12 -172 -7 -185 -7 -158 0 -520 6 -312 -2 -389 -40 -399 -11 -3
-190 -6 -396 -6 -324 0 -379 2 -398 16 l-22 15 0 1434 0 1434 22 15 c20 14
143 16 1123 16 605 0 1110 -3 1123 -6z m3826 -110 c3 -9 6 -58 6 -111 0 -85 2
-94 18 -91 14 3 18 19 22 108 l5 105 169 3 c126 2 171 -1 177 -10 4 -7 8 -190
8 -407 0 -365 1 -396 17 -408 13 -10 79 -13 259 -13 149 0 245 -4 251 -10 7
-7 20 -7 40 0 16 5 97 8 179 7 l150 -2 -1 -210 c0 -115 -1 -220 -1 -232 0 -13
-1 -50 -1 -83 0 -33 0 -66 -1 -72 0 -7 2 -118 5 -247 7 -335 21 -407 23 -121
1 126 6 232 11 240 6 10 10 -65 10 -222 0 -229 -3 -273 -20 -263 -4 3 -11 -6
-14 -20 -4 -14 -14 -26 -24 -26 -9 -1 -89 -2 -177 -3 l-160 -1 -3 -127 c-2
-120 -2 -127 18 -133 11 -4 80 -6 153 -6 73 0 140 -2 150 -5 21 -7 22 -30 2
-38 -8 -3 -15 -17 -15 -31 0 -23 2 -24 20 -15 14 7 20 7 20 0 0 -5 7 -10 15
-10 8 0 15 -9 15 -20 0 -11 5 -20 10 -20 6 0 10 9 10 20 0 11 -4 20 -8 20 -4
0 -15 13 -24 28 l-17 28 37 1 c72 3 102 -6 103 -30 1 -15 3 -17 6 -5 2 9 23
22 48 29 36 11 41 15 28 24 -13 10 -6 13 38 18 70 9 342 9 364 1 41 -16 -20
-24 -195 -25 -227 -2 -155 -16 101 -20 91 -1 186 -5 210 -8 l43 -6 3 -70 c6
-132 3 -169 -15 -183 -9 -7 -47 -13 -87 -13 -38 -1 -91 -2 -117 -3 -36 -1 -51
4 -61 18 -10 14 -21 17 -40 12 -15 -3 -29 -1 -33 5 -5 8 -10 6 -16 -5 -18 -32
-38 -18 -40 27 l-1 42 -6 -45 c-6 -44 -7 -45 -44 -48 -27 -2 -39 1 -43 13 -6
14 -9 13 -22 -6 -13 -19 -21 -21 -66 -15 -28 3 -81 3 -118 -1 l-68 -6 0 -39
c0 -21 -9 -57 -21 -79 -19 -38 -19 -42 -4 -59 14 -15 15 -27 7 -64 -6 -30 -6
-48 1 -55 11 -11 14 -128 3 -139 -15 -14 -482 -27 -541 -15 -39 9 -39 10 -37
48 3 49 -12 79 -23 46 -4 -13 -4 -32 -1 -44 7 -29 -7 -50 -30 -45 -26 5 -30
45 -6 66 17 15 18 20 7 41 -12 22 -14 21 -29 -32 -9 -30 -16 -60 -16 -66 0
-16 -56 -13 -70 4 -16 19 -34 19 -50 0 -20 -24 -134 -21 -158 5 -18 20 -18 20
-42 -3 -24 -22 -29 -22 -315 -24 -159 -2 -300 0 -313 3 l-22 6 2 227 3 226
100 5 c84 4 100 8 103 22 3 15 -9 18 -100 20 l-103 3 -3 1315 c-1 723 0 1321
3 1328 3 9 47 12 174 12 145 0 170 -2 175 -16z m636 -36 c0 -19 -2 -20 -10 -8
-13 19 -13 30 0 30 6 0 10 -10 10 -22z m740 -293 c0 -16 -45 -21 -54 -6 -8 12
4 21 31 21 14 0 23 -6 23 -15z m-5840 -235 c0 -5 -2 -10 -4 -10 -3 0 -8 5 -11
10 -3 6 -1 10 4 10 6 0 11 -4 11 -10z m888 -162 l3 -108 -80 0 c-115 0 -111
-4 -111 104 0 60 4 96 12 104 9 9 39 12 93 10 l80 -3 3 -107z m-230 -190 l-3
-293 -95 -5 c-79 -4 -95 -8 -98 -22 -3 -15 8 -18 95 -20 l98 -3 3 -728 2 -727
-647 2 -648 3 2 165 c1 91 2 190 4 220 1 30 -1 71 -5 92 -6 25 -4 45 6 65 13
26 13 37 1 83 -12 46 -10 110 2 110 11 0 75 -43 75 -51 0 -5 6 -9 13 -9 15 0
41 56 32 70 -9 14 -38 13 -53 -2 -9 -9 -15 -10 -20 -2 -4 6 -17 14 -28 18 -12
4 -25 17 -28 29 -11 41 -7 192 6 205 8 8 51 12 125 12 94 0 115 3 120 16 11
30 -16 39 -135 44 l-117 5 -3 475 c-1 261 0 485 3 498 l5 22 228 -2 c201 -3
227 -5 227 -19 0 -18 23 -49 36 -49 4 0 9 15 11 33 3 30 5 32 48 35 73 5 128
-6 135 -28 6 -19 7 -18 29 5 33 36 46 31 46 -14 0 -22 5 -43 10 -46 6 -4 10 8
10 27 0 40 14 58 41 51 25 -7 25 -45 0 -67 -18 -17 -18 -56 0 -56 19 0 41 51
36 84 -6 38 0 52 28 59 11 2 107 5 213 6 l192 1 -2 -292z m5152 -255 c0 -229
-4 -343 -10 -333 -11 17 -14 663 -3 673 3 4 8 7 10 7 2 0 3 -156 3 -347z
m-4966 291 l46 -7 -2 -161 -3 -161 -78 -3 c-50 -2 -84 1 -93 9 -11 9 -14 44
-14 155 0 183 3 187 144 168z m44 -546 c2 -155 1 -168 -15 -168 -10 -1 -45 -2
-77 -5 -97 -6 -96 -9 -96 168 0 108 4 157 12 165 9 9 39 12 93 10 l80 -3 3
-167z m-1600 -61 c-4 -196 -22 -201 -26 -7 -3 149 1 181 19 163 6 -6 8 -68 7
-156z m1602 -692 l0 -536 -92 3 -93 3 -3 519 c-1 375 1 523 9 532 8 10 37 14
95 14 l84 0 0 -535z m-1602 302 c-4 -196 -22 -201 -26 -7 -3 149 1 181 19 163
6 -6 8 -68 7 -156z m7257 -487 c16 -7 11 -9 -20 -9 -29 -1 -36 2 -25 9 17 11
19 11 45 0z m59 -37 c8 -49 4 -319 -4 -333 -4 -6 -14 -8 -24 -4 -12 5 -14 10
-6 19 7 9 10 73 8 184 -2 125 0 171 9 171 6 0 14 -17 17 -37z m-2539 18 c13
-1 15 -20 13 -128 l-3 -128 -77 -3 c-116 -4 -118 -2 -118 121 0 67 4 109 13
120 14 19 80 26 172 18z m10 -436 l0 -130 -77 -3 c-119 -4 -120 -3 -116 134 2
88 6 117 18 124 8 6 51 9 95 8 l80 -3 0 -130z m1970 95 c8 -12 11 -12 -107
-14 -61 -2 -103 -8 -113 -16 -13 -10 -15 -46 -15 -231 0 -210 -1 -219 -19
-219 -28 0 -36 19 -16 34 16 11 17 35 16 233 l-2 221 125 1 c72 0 128 -3 131
-9z m374 1 c22 -14 -32 -21 -159 -20 -122 1 -153 5 -145 19 7 11 286 12 304 1z
m106 -1 c4 -6 -7 -10 -27 -9 -27 0 -30 2 -13 9 27 12 33 12 40 0z m-7248 -72
c-3 -8 -6 -5 -6 6 -1 11 2 17 5 13 3 -3 4 -12 1 -19z m720 0 c-3 -8 -6 -5 -6
6 -1 11 2 17 5 13 3 -3 4 -12 1 -19z m4061 -275 c3 -71 2 -73 -23 -79 -27 -7
-109 1 -126 12 -12 7 -11 101 2 125 9 17 19 20 77 17 l67 -3 3 -72z m-1554
-95 c5 -24 3 -28 -14 -28 -23 0 -23 0 -10 36 12 31 15 30 24 -8z m1354 -37 c8
-53 94 -50 -1466 -48 -1158 2 -1446 5 -1450 15 -3 10 133 12 685 12 378 0
1026 0 1439 0 l752 0 6 26 c8 30 30 27 34 -5z m1760 21 c9 -6 6 -12 -13 -20
-18 -9 -223 -12 -755 -12 -402 0 -730 2 -730 4 0 3 -3 11 -6 20 -6 15 64 16
742 16 412 0 755 -4 762 -8z m122 -2 c0 -5 -18 -10 -40 -10 -22 0 -40 5 -40
10 0 6 18 10 40 10 22 0 40 -4 40 -10z"/>
<path d="M7595 6613 c11 -3 23 -10 26 -15 8 -12 29 -2 29 13 0 5 -17 8 -37 8
-22 -1 -30 -3 -18 -6z"/>
<path d="M7440 6575 c0 -15 4 -24 10 -20 6 3 10 12 10 20 0 8 -4 17 -10 20 -6
4 -10 -5 -10 -20z"/>
<path d="M7770 6579 c0 -12 -7 -27 -15 -33 -14 -10 -13 -13 6 -30 22 -18 22
-18 16 3 -3 11 -1 24 4 27 12 7 11 54 -1 54 -5 0 -10 -10 -10 -21z"/>
<path d="M7372 6494 c-27 -32 -21 -44 24 -44 37 0 46 14 14 23 -20 5 -28 27
-10 27 6 0 10 5 10 10 0 17 -14 11 -38 -16z"/>
<path d="M7570 6488 c0 -31 -8 -40 -62 -71 -98 -57 -165 -198 -139 -295 15
-56 73 -152 103 -171 146 -93 250 -91 358 6 82 74 108 147 95 264 -9 75 -51
142 -117 184 -29 19 -47 37 -47 50 -1 16 -8 20 -31 19 -17 0 -36 -6 -42 -12
-7 -7 -31 -12 -55 -12 -41 0 -43 1 -43 30 0 17 -4 30 -10 30 -5 0 -10 -10 -10
-22z m150 -81 c53 -18 106 -63 142 -121 27 -44 32 -60 32 -116 0 -53 -5 -73
-26 -105 -40 -63 -87 -103 -147 -126 -49 -19 -63 -20 -109 -11 -72 15 -131 57
-169 122 -29 48 -33 63 -33 127 0 64 3 77 31 118 68 100 182 146 279 112z"/>
<path d="M7602 6320 c-24 -22 -28 -45 -12 -55 6 -4 16 -2 23 4 7 5 19 6 26 2
11 -7 11 -15 0 -44 -11 -32 -11 -39 4 -55 21 -23 22 -68 2 -75 -8 -4 -17 -2
-20 3 -4 6 -15 10 -26 10 -25 0 -25 -34 1 -60 28 -28 55 -25 80 8 19 23 21 35
16 82 -3 30 -6 79 -6 109 1 82 -40 115 -88 71z"/>
<path d="M8562 6185 c-13 -27 -27 -32 -35 -12 -3 7 -6 5 -6 -5 -1 -10 5 -18
13 -18 8 0 21 -3 29 -6 11 -4 16 4 19 30 5 42 -4 47 -20 11z"/>
<path d="M8522 6055 c0 -16 2 -22 5 -12 2 9 2 23 0 30 -3 6 -5 -1 -5 -18z"/>
<path d="M6706 5951 c-4 -7 -5 -15 -2 -18 9 -9 19 4 14 18 -4 11 -6 11 -12 0z"/>
<path d="M6781 5934 c0 -11 3 -14 6 -6 3 7 2 16 -1 19 -3 4 -6 -2 -5 -13z"/>
<path d="M6817 5904 c-3 -4 1 -13 9 -21 17 -18 29 -11 21 12 -7 16 -19 20 -30
9z"/>
<path d="M8520 5857 c0 -22 23 -37 40 -27 8 6 31 10 50 10 28 1 31 3 15 9 -11
5 -39 12 -62 16 -34 5 -43 4 -43 -8z"/>
<path d="M7315 5851 c-3 -5 -2 -12 3 -15 12 -7 52 4 52 15 0 12 -47 12 -55 0z"/>
<path d="M7530 5850 c-11 -7 -6 -10 20 -10 26 0 31 3 20 10 -8 5 -17 10 -20
10 -3 0 -12 -5 -20 -10z"/>
<path d="M7650 5844 c0 -11 5 -14 16 -10 9 3 22 6 30 6 8 0 14 5 14 10 0 6
-13 10 -30 10 -21 0 -30 -5 -30 -16z"/>
<path d="M6700 5806 c0 -14 5 -28 12 -32 6 -4 8 -3 5 4 -19 29 25 56 50 31 8
-8 17 -8 32 1 12 6 26 8 31 5 6 -3 10 -1 10 4 0 7 -27 11 -70 11 -68 0 -70 -1
-70 -24z"/>
<path d="M7496 5818 c-2 -7 -9 -28 -15 -45 -8 -27 -7 -33 4 -33 17 0 35 31 35
59 0 23 -18 38 -24 19z"/>
<path d="M7290 5790 c0 -18 2 -19 20 -8 11 7 20 16 20 20 0 5 -9 8 -20 8 -13
0 -20 -7 -20 -20z"/>
<path d="M7625 5800 c-3 -5 1 -10 9 -10 9 0 16 5 16 10 0 6 -4 10 -9 10 -6 0
-13 -4 -16 -10z"/>
<path d="M7827 5799 c-2 -8 -9 -29 -15 -48 -12 -37 -7 -55 8 -31 8 13 11 12
23 -4 12 -16 17 -17 36 -6 l23 12 -21 22 c-12 12 -21 27 -21 33 0 6 -7 16 -15
23 -12 10 -15 10 -18 -1z"/>
<path d="M7910 5791 c-13 -26 -13 -33 4 -57 14 -18 15 -17 31 19 8 21 13 42
10 47 -10 16 -34 11 -45 -9z"/>
<path d="M7361 5773 c0 -10 4 -27 9 -38 7 -16 9 -13 9 18 1 20 -3 37 -9 37 -5
0 -10 -8 -9 -17z"/>
<path d="M7703 5755 c0 -22 2 -30 4 -17 2 12 2 30 0 40 -3 9 -5 -1 -4 -23z"/>
<path d="M6705 5619 c-4 -6 -5 -13 -2 -16 7 -7 27 6 27 18 0 12 -17 12 -25 -2z"/>
<path d="M6740 5620 c0 -5 9 -10 20 -10 11 0 20 -5 20 -12 0 -6 3 -8 6 -5 9 9
-15 37 -32 37 -8 0 -14 -4 -14 -10z"/>
<path d="M8018 5593 c7 -3 16 -2 19 1 4 3 -2 6 -13 5 -11 0 -14 -3 -6 -6z"/>
<path d="M8160 5581 c26 -21 40 -19 40 5 0 9 -11 14 -32 14 l-33 0 25 -19z"/>
<path d="M7823 5583 c-15 -6 -17 -39 -3 -48 12 -7 23 17 18 38 -1 8 -9 12 -15
10z"/>
<path d="M6705 5570 c3 -5 8 -10 11 -10 2 0 4 5 4 10 0 6 -5 10 -11 10 -5 0
-7 -4 -4 -10z"/>
<path d="M8050 5554 c0 -14 4 -23 10 -19 6 3 10 15 10 26 0 10 -4 19 -10 19
-5 0 -10 -12 -10 -26z"/>
<path d="M6820 5549 c13 -23 33 -21 38 4 3 12 -4 17 -23 17 -23 0 -25 -2 -15
-21z"/>
<path d="M8130 5485 c0 -8 2 -15 4 -15 2 0 6 7 10 15 3 8 1 15 -4 15 -6 0 -10
-7 -10 -15z"/>
<path d="M7988 5479 c-20 -11 -24 -34 -8 -44 5 -3 17 -2 26 3 11 6 13 12 6 16
-6 4 -9 13 -5 21 6 17 4 18 -19 4z"/>
<path d="M7800 5458 c0 -19 2 -20 10 -8 13 19 13 30 0 30 -5 0 -10 -10 -10
-22z"/>
<path d="M7544 5346 c-8 -21 3 -49 16 -41 5 3 10 15 10 25 0 25 -18 36 -26 16z"/>
<path d="M7648 5283 c7 -3 16 -2 19 1 4 3 -2 6 -13 5 -11 0 -14 -3 -6 -6z"/>
<path d="M7545 5190 c-3 -5 -1 -18 4 -27 9 -16 10 -14 11 10 0 28 -5 34 -15
17z"/>
<path d="M7593 5157 c-11 -23 -10 -28 10 -42 25 -17 47 -20 47 -5 0 6 -7 10
-15 10 -8 0 -18 14 -23 31 l-8 32 -11 -26z"/>
<path d="M6901 5076 c-10 -12 -10 -23 0 -53 l13 -38 8 38 c10 47 -2 76 -21 53z"/>
<path d="M7202 5070 c-23 -22 -28 -55 -13 -79 7 -10 14 0 25 39 9 29 14 55 13
57 -2 1 -13 -6 -25 -17z"/>
<path d="M7106 5072 c-9 -15 -5 -122 5 -122 12 0 16 13 23 78 4 40 2 52 -9 52
-8 0 -16 -4 -19 -8z"/>
<path d="M7060 5000 c0 -11 5 -20 10 -20 6 0 10 9 10 20 0 11 -4 20 -10 20 -5
0 -10 -9 -10 -20z"/>
<path d="M7260 4984 c0 -21 4 -33 10 -29 6 3 10 19 10 36 0 16 -4 29 -10 29
-5 0 -10 -16 -10 -36z"/>
<path d="M7568 5013 c-13 -3 -18 -14 -17 -36 2 -30 2 -31 6 -4 4 24 8 27 44
27 24 0 38 4 34 10 -6 10 -36 11 -67 3z"/>
<path d="M7191 4954 c0 -11 3 -14 6 -6 3 7 2 16 -1 19 -3 4 -6 -2 -5 -13z"/>
<path d="M5174 6387 c3 -7 9 -20 12 -29 9 -26 24 -22 24 6 0 15 -7 26 -21 29
-13 4 -18 1 -15 -6z"/>
<path d="M5277 6341 c-2 -10 -1 -24 3 -31 5 -7 9 -2 12 14 6 30 -7 45 -15 17z"/>
<path d="M4920 6308 c0 -5 14 -8 30 -8 17 0 30 4 30 9 0 4 -13 8 -30 7 -16 -1
-30 -4 -30 -8z"/>
<path d="M5120 6310 c0 -5 7 -10 16 -10 8 0 12 5 9 10 -3 6 -10 10 -16 10 -5
0 -9 -4 -9 -10z"/>
<path d="M5165 6310 c-3 -5 -1 -10 4 -10 6 0 11 5 11 10 0 6 -2 10 -4 10 -3 0
-8 -4 -11 -10z"/>
<path d="M6248 5593 c12 -2 30 -2 40 0 9 3 -1 5 -23 4 -22 0 -30 -2 -17 -4z"/>
<path d="M6352 5535 c0 -16 2 -22 5 -12 2 9 2 23 0 30 -3 6 -5 -1 -5 -18z"/>
<path d="M6280 5490 c0 -5 11 -10 24 -10 14 0 28 5 31 10 4 6 -7 10 -24 10
-17 0 -31 -4 -31 -10z"/>
<path d="M6343 5398 c2 -21 -3 -24 -53 -29 l-55 -6 63 -1 62 -2 0 30 c0 17 -4
30 -10 30 -5 0 -9 -10 -7 -22z"/>
<path d="M6265 5241 c-8 -14 8 -21 34 -14 17 4 19 8 9 14 -17 11 -35 11 -43 0z"/>
<path d="M6347 5208 c8 -46 13 -48 13 -5 0 21 -4 37 -10 37 -5 0 -7 -14 -3
-32z"/>
<path d="M4905 4695 c-55 -29 -95 -70 -125 -127 -16 -29 -20 -57 -20 -126 0
-82 2 -92 31 -135 38 -57 117 -127 144 -127 11 0 28 -7 38 -14 11 -9 34 -12
65 -9 101 11 183 54 227 122 44 69 54 104 51 181 -4 92 -47 166 -125 219 -51
34 -60 36 -145 39 -82 3 -96 0 -141 -23z m220 -24 c56 -25 102 -67 128 -115
30 -58 30 -165 -1 -224 -24 -45 -100 -108 -142 -118 -14 -3 -35 -10 -47 -16
-17 -8 -35 -7 -77 6 -154 49 -236 202 -176 329 58 124 205 188 315 138z"/>
<path d="M4981 4584 c-23 -29 -24 -34 -15 -59 6 -14 9 -14 30 6 12 11 27 18
33 14 21 -12 11 -53 -29 -119 -22 -36 -40 -77 -40 -91 0 -25 1 -26 62 -23 50
2 63 6 66 21 2 10 -4 20 -15 24 -42 15 -43 23 -13 84 35 69 37 93 10 137 -25
40 -60 43 -89 6z"/>
<path d="M6403 4085 c0 -33 2 -45 4 -27 2 18 2 45 0 60 -2 15 -4 0 -4 -33z"/>
<path d="M6600 4114 c0 -9 -7 -22 -17 -29 -15 -11 -11 -35 5 -35 11 0 30 70
21 76 -5 3 -9 -2 -9 -12z"/>
<path d="M3895 4110 c3 -5 8 -10 11 -10 2 0 4 5 4 10 0 6 -5 10 -11 10 -5 0
-7 -4 -4 -10z"/>
<path d="M3970 4095 c-5 -14 -14 -25 -20 -25 -8 0 -8 -6 0 -20 20 -37 40 -24
40 25 0 51 -6 57 -20 20z"/>
<path d="M4690 4120 c-7 -24 -7 -61 0 -65 12 -7 18 27 9 50 -4 11 -8 18 -9 15z"/>
<path d="M4756 4095 c-9 -13 -16 -31 -16 -40 0 -12 3 -13 19 -4 31 20 54 4 49
-36 -3 -24 0 -35 9 -35 9 0 13 15 13 45 0 38 -3 45 -20 45 -15 0 -20 7 -20 25
0 32 -13 32 -34 0z"/>
<path d="M5020 4105 c0 -11 -7 -31 -16 -43 -12 -18 -13 -26 -4 -37 7 -8 10
-22 6 -30 -6 -18 10 -20 20 -3 11 17 12 104 3 120 -6 9 -9 7 -9 -7z"/>
<path d="M5093 4093 c-26 -60 -31 -82 -26 -102 8 -31 23 -26 23 9 0 16 7 33
15 38 12 6 14 17 8 45 l-8 37 -12 -27z"/>
<path d="M5141 4098 c-3 -82 -2 -98 5 -110 10 -15 25 97 17 119 -8 21 -21 15
-22 -9z"/>
<path d="M6321 4078 c1 -37 2 -39 9 -18 12 36 12 60 0 60 -5 0 -10 -19 -9 -42z"/>
<path d="M6650 4096 c0 -14 5 -28 10 -31 6 -4 10 7 10 24 0 17 -4 31 -10 31
-5 0 -10 -11 -10 -24z"/>
<path d="M5277 4074 c-12 -12 -8 -55 7 -70 8 -7 16 -18 18 -24 5 -15 38 -1 38
15 0 7 -6 18 -14 25 -8 6 -16 21 -18 32 -3 22 -19 33 -31 22z"/>
<path d="M5361 4054 c-10 -22 -9 -30 6 -46 18 -20 18 -20 24 4 18 64 -5 96
-30 42z"/>
<path d="M6321 4014 c0 -11 3 -14 6 -6 3 7 2 16 -1 19 -3 4 -6 -2 -5 -13z"/>
<path d="M4628 4013 c-20 -5 -29 -25 -18 -43 13 -20 40 -3 40 25 0 14 -1 24
-2 24 -2 -1 -10 -3 -20 -6z"/>
<path d="M3889 3993 c-1 -4 0 -18 0 -30 2 -13 -5 -23 -16 -26 -14 -4 -13 -5 5
-6 12 0 25 -1 29 -1 12 0 7 64 -5 68 -7 2 -12 0 -13 -5z"/>
<path d="M4740 3986 c0 -9 5 -16 10 -16 6 0 10 4 10 9 0 6 -4 13 -10 16 -5 3
-10 -1 -10 -9z"/>
<path d="M5250 3984 c0 -8 5 -12 10 -9 6 3 10 10 10 16 0 5 -4 9 -10 9 -5 0
-10 -7 -10 -16z"/>
<path d="M3970 3949 c0 -17 4 -28 10 -24 6 3 10 17 10 31 0 13 -4 24 -10 24
-5 0 -10 -14 -10 -31z"/>
<path d="M3908 3783 c7 -3 16 -2 19 1 4 3 -2 6 -13 5 -11 0 -14 -3 -6 -6z"/>
<path d="M3970 3744 c0 -14 4 -23 10 -19 6 3 10 15 10 26 0 10 -4 19 -10 19
-5 0 -10 -12 -10 -26z"/>
<path d="M3865 3740 c-12 -20 17 -40 56 -40 22 0 39 5 39 11 0 5 -5 7 -10 4
-6 -3 -23 3 -39 14 -33 24 -37 25 -46 11z"/>
<path d="M6568 2993 c7 -3 16 -2 19 1 4 3 -2 6 -13 5 -11 0 -14 -3 -6 -6z"/>
<path d="M6526 2973 c-4 -9 -2 -21 4 -27 7 -7 10 -2 10 17 0 31 -5 34 -14 10z"/>
<path d="M6630 2941 c0 -17 30 -40 46 -34 24 9 12 38 -19 41 -15 2 -27 -1 -27
-7z"/>
<path d="M6573 2815 c1 -30 4 -35 25 -35 21 0 23 2 12 15 -10 13 -10 19 5 35
18 20 17 20 -12 20 -29 0 -31 -2 -30 -35z"/>
<path d="M6531 2824 c0 -11 3 -14 6 -6 3 7 2 16 -1 19 -3 4 -6 -2 -5 -13z"/>
<path d="M6583 2643 c15 -15 21 -16 38 -5 11 7 25 10 31 6 7 -4 8 -3 4 4 -4 7
-26 12 -49 12 -39 0 -40 -1 -24 -17z"/>
<path d="M6527 2635 c-4 -8 -2 -17 3 -20 6 -4 10 3 10 14 0 25 -6 27 -13 6z"/>
<path d="M5477 1495 c-4 -22 -2 -44 3 -49 13 -13 24 41 13 67 -9 19 -10 17
-16 -18z"/>
<path d="M5145 1510 c-3 -5 -1 -10 4 -10 6 0 11 5 11 10 0 6 -2 10 -4 10 -3 0
-8 -4 -11 -10z"/>
<path d="M5250 1486 c0 -23 26 -43 39 -30 3 4 0 9 -6 11 -7 3 -13 13 -13 24 0
10 -4 19 -10 19 -5 0 -10 -11 -10 -24z"/>
<path d="M8540 5135 c0 -14 5 -25 10 -25 6 0 10 11 10 25 0 14 -4 25 -10 25
-5 0 -10 -11 -10 -25z"/>
<path d="M8557 4790 c3 -11 12 -20 19 -20 8 0 14 9 14 20 0 13 -7 20 -19 20
-14 0 -18 -5 -14 -20z"/>
<path d="M8184 4618 c-16 -26 -21 -98 -8 -109 21 -17 34 -1 33 39 -1 20 2 47
6 60 5 16 3 22 -8 22 -9 0 -19 -5 -23 -12z"/>
<path d="M8276 4608 c-9 -35 -8 -36 22 -40 22 -2 28 -8 30 -35 4 -38 18 -44
24 -10 6 34 -1 55 -23 62 -10 4 -19 15 -19 26 0 26 -26 24 -34 -3z"/>
<path d="M8554 4575 c-13 -20 -14 -28 -4 -40 17 -20 40 -2 40 31 0 34 -17 38
-36 9z"/>
<path d="M8460 4567 c0 -14 7 -30 15 -37 8 -7 15 -19 15 -26 0 -19 15 -18 36
3 15 16 15 17 -2 23 -10 4 -21 18 -24 31 -8 33 -40 38 -40 6z"/>
<path d="M8130 4545 c0 -8 5 -15 10 -15 6 0 10 7 10 15 0 8 -4 15 -10 15 -5 0
-10 -7 -10 -15z"/>
<path d="M8442 4510 c0 -14 2 -19 5 -12 2 6 2 18 0 25 -3 6 -5 1 -5 -13z"/>
<path d="M8260 4500 c0 -5 5 -10 11 -10 5 0 7 5 4 10 -3 6 -8 10 -11 10 -2 0
-4 -4 -4 -10z"/>
<path d="M8580 4405 c0 -8 5 -15 10 -15 6 0 10 7 10 15 0 8 -4 15 -10 15 -5 0
-10 -7 -10 -15z"/>
<path d="M8225 4400 c-8 -13 5 -61 16 -54 12 7 12 64 0 64 -6 0 -12 -4 -16
-10z"/>
<path d="M8392 4380 c0 -14 2 -19 5 -12 2 6 2 18 0 25 -3 6 -5 1 -5 -13z"/>
<path d="M8460 4353 c0 -35 3 -44 10 -33 13 20 13 67 0 75 -6 4 -10 -12 -10
-42z"/>
<path d="M8542 4310 c0 -14 2 -19 5 -12 2 6 2 18 0 25 -3 6 -5 1 -5 -13z"/>
<path d="M8197 5088 c-56 -127 -68 -161 -65 -176 2 -9 18 -21 36 -27 17 -5 35
-17 38 -27 8 -25 44 -24 44 1 0 11 5 23 11 27 6 3 8 15 4 28 -4 11 -10 61 -14
111 -5 73 -9 90 -23 93 -11 2 -21 -8 -31 -30z m3 -124 c0 -8 -4 -14 -10 -14
-5 0 -10 9 -10 21 0 11 5 17 10 14 6 -3 10 -13 10 -21z"/>
<path d="M1347 2523 c-13 -12 -8 -291 5 -299 8 -5 503 -9 631 -5 16 1 17 13
15 154 l-3 152 -321 3 c-176 1 -323 -1 -327 -5z m628 -143 l0 -115 -301 -3
-302 -2 -6 22 c-8 30 -8 147 0 187 l7 31 301 -2 301 -3 0 -115z"/>
<path d="M1755 2421 c-8 -27 11 -54 21 -28 3 9 1 24 -4 33 -9 16 -10 15 -17
-5z"/>
<path d="M1661 2404 c0 -11 3 -14 6 -6 3 7 2 16 -1 19 -3 4 -6 -2 -5 -13z"/>
<path d="M1502 2360 c0 -19 2 -27 5 -17 2 9 2 25 0 35 -3 9 -5 1 -5 -18z"/>
<path d="M1712 2365 c0 -16 2 -22 5 -12 2 9 2 23 0 30 -3 6 -5 -1 -5 -18z"/>
<path d="M1806 2382 c-8 -14 5 -53 18 -49 15 5 14 49 -1 54 -6 2 -14 0 -17 -5z"/>
<path d="M1912 2365 c0 -16 2 -22 5 -12 2 9 2 23 0 30 -3 6 -5 -1 -5 -18z"/>
<path d="M7545 4271 c-10 -18 28 -29 53 -16 l23 12 -23 7 c-32 8 -46 7 -53 -3z"/>
<path d="M7552 4073 c2 -10 11 -18 21 -17 9 0 34 2 55 3 l37 2 -50 14 c-65 18
-67 18 -63 -2z"/>
<path d="M8427 3732 c-10 -10 -17 -28 -17 -40 0 -14 -7 -22 -22 -24 -28 -4
-36 -28 -10 -28 12 0 23 -9 27 -21 6 -19 8 -20 26 -3 23 21 25 42 4 50 -8 4
-15 10 -15 15 0 5 7 9 15 9 10 0 15 10 15 30 0 35 -2 36 -23 12z"/>
<path d="M8072 3723 c-5 -11 -4 -32 3 -52 9 -26 13 -30 18 -16 10 26 8 85 -3
85 -5 0 -13 -8 -18 -17z"/>
<path d="M8306 3713 c9 -36 12 -39 20 -19 7 20 -1 46 -16 46 -6 0 -8 -11 -4
-27z"/>
<path d="M8246 3629 c-21 -21 -16 -35 9 -26 8 4 15 16 15 27 0 24 0 24 -24 -1z"/>
<path d="M7615 3450 c-3 -5 -16 -10 -27 -10 -24 0 -106 -45 -126 -69 -7 -9
-26 -43 -42 -75 -24 -48 -30 -72 -30 -127 0 -37 5 -71 10 -74 6 -3 10 -13 10
-21 0 -29 57 -104 102 -134 25 -17 79 -39 119 -49 64 -16 76 -17 90 -5 8 8 22
14 31 14 8 0 42 17 74 38 49 32 65 49 93 105 56 110 45 216 -32 318 -21 27
-101 76 -142 88 -50 14 -122 14 -130 1z m174 -64 c72 -46 131 -144 131 -218 0
-40 -34 -114 -72 -156 -101 -111 -237 -111 -356 1 -32 31 -72 119 -72 161 0
71 61 165 137 212 31 19 52 23 116 24 65 0 83 -4 116 -24z"/>
<path d="M7622 3323 c-5 -10 -13 -44 -16 -75 -6 -45 -4 -58 6 -59 7 -1 24 -2
38 -2 34 -3 51 -50 27 -74 -15 -15 -20 -16 -38 -4 -30 18 -46 0 -31 -33 15
-34 57 -44 82 -21 48 44 43 142 -9 186 -32 26 -32 39 0 39 20 0 39 28 32 48
-7 19 -81 15 -91 -5z"/>
<path d="M8500 3330 c12 -23 35 -22 35 1 0 8 -10 15 -23 17 -21 3 -22 1 -12
-18z"/>
<path d="M8484 3226 c-4 -10 -2 -22 4 -28 8 -8 13 -7 18 6 4 10 2 22 -4 28 -8
8 -13 7 -18 -6z"/>
<path d="M7012 3180 c0 -14 2 -19 5 -12 2 6 2 18 0 25 -3 6 -5 1 -5 -13z"/>
<path d="M7101 3121 c-10 -7 -10 -10 -1 -16 6 -4 16 -3 22 3 13 13 -4 23 -21
13z"/>
<path d="M7073 3083 c-7 -2 -13 -9 -13 -15 0 -14 43 -6 48 10 4 12 -12 15 -35
5z"/>
<path d="M7006 3063 c-4 -9 -2 -21 4 -27 7 -7 10 -2 10 17 0 31 -5 34 -14 10z"/>
<path d="M8502 2995 c13 -29 21 -31 38 -10 16 19 4 35 -25 35 -23 0 -24 -2
-13 -25z"/>
<path d="M7010 2870 c0 -5 12 -17 26 -26 22 -15 27 -15 34 -4 5 9 4 20 -2 27
-12 15 -58 18 -58 3z"/>
<path d="M7107 2873 c-10 -9 -9 -71 1 -77 4 -2 15 9 24 25 15 26 15 30 2 44
-18 17 -18 17 -27 8z"/>
<path d="M7316 2815 c-8 -40 1 -65 15 -44 11 18 11 66 0 73 -5 3 -12 -10 -15
-29z"/>
<path d="M7387 2844 c-4 -4 -7 -15 -7 -25 0 -9 -5 -19 -11 -21 -16 -5 -2 -48
15 -48 16 0 31 79 18 92 -4 4 -11 5 -15 2z"/>
<path d="M7523 2810 c0 -25 2 -35 4 -22 2 12 2 32 0 45 -2 12 -4 2 -4 -23z"/>
<path d="M7720 2820 c0 -18 4 -29 10 -25 6 3 10 15 10 25 0 10 -4 22 -10 25
-6 4 -10 -7 -10 -25z"/>
<path d="M7583 2796 c-24 -30 -30 -61 -14 -70 14 -9 42 43 39 72 l-3 27 -22
-29z"/>
<path d="M7842 2795 c-7 -14 -12 -38 -12 -52 0 -21 3 -23 14 -14 11 10 16 8
24 -5 9 -16 12 -16 50 2 47 22 67 54 49 78 -11 15 -14 13 -30 -14 -23 -38 -32
-38 -52 0 -19 37 -28 38 -43 5z"/>
<path d="M8008 2783 c7 -3 16 -2 19 1 4 3 -2 6 -13 5 -11 0 -14 -3 -6 -6z"/>
<path d="M7651 2741 c-17 -11 -7 -45 12 -39 13 5 23 48 10 48 -4 0 -14 -4 -22
-9z"/>
<path d="M8367 2704 c-10 -11 -9 -54 2 -54 15 0 18 13 12 38 -3 13 -9 20 -14
16z"/>
<path d="M8161 2684 c0 -11 3 -14 6 -6 3 7 2 16 -1 19 -3 4 -6 -2 -5 -13z"/>
<path d="M8406 2645 c4 -8 10 -15 15 -15 4 0 6 7 3 15 -4 8 -10 15 -15 15 -4
0 -6 -7 -3 -15z"/>
<path d="M8540 2640 c0 -11 5 -20 10 -20 6 0 10 9 10 20 0 11 -4 20 -10 20 -5
0 -10 -9 -10 -20z"/>
<path d="M8130 2620 c0 -16 5 -30 10 -30 6 0 10 14 10 30 0 17 -4 30 -10 30
-5 0 -10 -13 -10 -30z"/>
<path d="M8211 2594 c0 -11 3 -14 6 -6 3 7 2 16 -1 19 -3 4 -6 -2 -5 -13z"/>
<path d="M8410 2584 c0 -8 5 -12 10 -9 6 4 8 11 5 16 -9 14 -15 11 -15 -7z"/>
<path d="M8541 2584 c0 -11 3 -14 6 -6 3 7 2 16 -1 19 -3 4 -6 -2 -5 -13z"/>
<path d="M8150 2498 c0 -23 17 -41 25 -29 3 7 15 9 26 6 29 -9 23 8 -8 23 -15
6 -31 12 -35 12 -4 0 -8 -6 -8 -12z"/>
<path d="M8081 2464 c0 -11 3 -14 6 -6 3 7 2 16 -1 19 -3 4 -6 -2 -5 -13z"/>
<path d="M8138 2433 c-16 -8 -28 -21 -28 -30 0 -15 2 -15 18 0 10 10 24 17 30
17 7 0 12 7 12 15 0 8 -1 15 -2 14 -2 -1 -15 -8 -30 -16z"/>
<path d="M8082 2340 c0 -14 2 -19 5 -12 2 6 2 18 0 25 -3 6 -5 1 -5 -13z"/>
<path d="M8200 2305 c0 -8 9 -15 20 -15 11 0 20 7 20 15 0 8 -9 15 -20 15 -11
0 -20 -7 -20 -15z"/>
<path d="M8429 2199 c-9 -17 -8 -25 5 -37 15 -15 16 -13 16 21 0 42 -5 46 -21
16z"/>
<path d="M9360 2146 c0 -9 7 -12 20 -9 11 3 20 9 20 14 0 5 -9 9 -20 9 -11 0
-20 -6 -20 -14z"/>
<path d="M9323 2100 c-6 -16 -7 -30 -2 -30 5 0 12 -1 16 -2 3 -2 7 12 7 30 1
40 -6 41 -21 2z"/>
<path d="M8410 2079 c0 -11 5 -17 10 -14 6 3 10 13 10 21 0 8 -4 14 -10 14 -5
0 -10 -9 -10 -21z"/>
<path d="M8761 1998 c-5 -14 -4 -32 2 -46 10 -22 12 -22 18 -5 11 27 10 61 -1
68 -6 3 -14 -4 -19 -17z"/>
<path d="M9113 2003 c-27 -27 -29 -41 -7 -50 22 -8 36 10 32 43 l-3 29 -22
-22z"/>
<path d="M8927 1993 c-4 -3 -7 -13 -7 -22 1 -13 3 -13 11 2 11 19 8 33 -4 20z"/>
<path d="M9318 1943 c12 -2 32 -2 45 0 12 2 2 4 -23 4 -25 0 -35 -2 -22 -4z"/>
<path d="M8508 1813 c7 -3 16 -2 19 1 4 3 -2 6 -13 5 -11 0 -14 -3 -6 -6z"/>
<path d="M8471 1774 c0 -11 3 -14 6 -6 3 7 2 16 -1 19 -3 4 -6 -2 -5 -13z"/>
<path d="M8506 1621 c-6 -9 43 -35 52 -27 2 3 2 12 -1 21 -7 16 -42 21 -51 6z"/>
<path d="M7900 1555 c0 -22 4 -34 10 -30 6 3 10 17 10 30 0 13 -4 27 -10 30
-6 4 -10 -8 -10 -30z"/>
<path d="M7701 1550 c0 -33 1 -34 11 -12 8 17 8 26 0 34 -9 9 -12 4 -11 -22z"/>
<path d="M2900 3869 c0 -11 5 -17 10 -14 6 3 10 13 10 21 0 8 -4 14 -10 14 -5
0 -10 -9 -10 -21z"/>
<path d="M2702 3830 c0 -14 2 -19 5 -12 2 6 2 18 0 25 -3 6 -5 1 -5 -13z"/>
<path d="M2882 3820 c0 -14 2 -19 5 -12 2 6 2 18 0 25 -3 6 -5 1 -5 -13z"/>
<path d="M2744 3591 c-42 -11 -118 -64 -146 -103 -42 -59 -58 -107 -58 -174 0
-112 55 -203 153 -252 133 -66 282 -22 368 110 50 78 59 141 30 222 -26 75
-60 118 -125 162 -45 29 -64 36 -122 39 -38 2 -83 1 -100 -4z m169 -51 c92
-44 137 -106 144 -194 8 -89 -2 -126 -44 -175 -61 -72 -103 -93 -192 -94 -65
0 -82 3 -117 25 -73 46 -134 141 -134 208 0 37 23 100 54 147 60 90 193 128
289 83z"/>
<path d="M2796 3443 c-29 -31 -33 -64 -11 -83 10 -8 15 -37 17 -93 3 -69 6
-82 21 -85 15 -3 17 9 17 137 0 77 -4 142 -9 146 -6 3 -21 -7 -35 -22z"/>
<path d="M2544 2934 c-7 -28 10 -54 25 -38 11 11 3 64 -10 64 -5 0 -12 -12
-15 -26z"/>
<path d="M2876 2944 c-3 -9 -6 -27 -6 -40 0 -13 -4 -24 -10 -24 -5 0 -10 -13
-10 -30 0 -16 5 -30 10 -30 6 0 10 11 10 25 0 14 7 28 15 31 9 4 15 19 15 39
0 37 -14 54 -24 29z"/>
<path d="M2727 2913 c-10 -10 -8 -76 3 -93 7 -11 10 2 10 43 0 58 -1 62 -13
50z"/>
<path d="M3065 2908 c-14 -43 -8 -78 14 -78 11 0 22 -6 25 -12 3 -9 9 -7 20 6
17 21 18 21 33 -8 9 -16 12 -11 22 34 9 40 9 56 0 64 -8 8 -13 8 -16 -1 -9
-26 -46 -64 -53 -56 -5 4 -10 19 -12 32 -3 27 -25 40 -33 19z"/>
<path d="M2595 2900 c-4 -6 -3 -16 3 -22 13 -13 23 4 13 21 -7 10 -10 10 -16
1z"/>
<path d="M2926 2902 c-8 -14 6 -82 15 -76 12 7 11 84 0 84 -6 0 -12 -4 -15 -8z"/>
<path d="M2808 2874 c-5 -4 -8 -16 -8 -28 0 -14 3 -17 11 -9 6 6 9 19 7 28 -1
9 -6 13 -10 9z"/>
<path d="M2600 2835 c0 -8 2 -15 4 -15 2 0 6 7 10 15 3 8 1 15 -4 15 -6 0 -10
-7 -10 -15z"/>
<path d="M2651 2794 c0 -11 3 -14 6 -6 3 7 2 16 -1 19 -3 4 -6 -2 -5 -13z"/>
<path d="M2496 2522 c-10 -17 -8 -295 2 -301 6 -3 124 -5 262 -5 201 2 254 5
261 15 10 16 12 259 3 283 -5 14 -38 16 -264 16 -143 0 -261 -4 -264 -8z m485
-51 c7 -18 6 -22 -4 -18 -10 4 -13 -10 -14 -59 0 -56 1 -62 13 -47 12 16 13
13 14 -28 0 -34 -4 -49 -16 -53 -9 -3 -114 -6 -235 -6 -168 0 -219 3 -220 13
-1 13 -1 180 0 210 1 16 17 17 227 15 l227 -3 8 -24z"/>
<path d="M2802 2400 c0 -14 2 -19 5 -12 2 6 2 18 0 25 -3 6 -5 1 -5 -13z"/>
<path d="M2553 2365 c0 -27 2 -38 4 -22 2 15 2 37 0 50 -2 12 -4 0 -4 -28z"/>
<path d="M2856 2343 c-6 -14 -5 -15 5 -6 7 7 10 15 7 18 -3 3 -9 -2 -12 -12z"/>
<path d="M2288 2475 c-6 -27 22 -56 52 -54 9 0 7 4 -8 11 -16 8 -21 19 -20 36
4 33 -18 40 -24 7z"/>
<path d="M2362 2262 c-7 -5 -10 -16 -6 -25 9 -25 24 -20 24 8 0 28 0 28 -18
17z"/>
<path d="M1527 5123 c-4 -3 -7 -69 -7 -145 l0 -138 338 2 337 3 0 140 c0 132
-1 140 -20 143 -11 1 -27 -2 -35 -8 -13 -9 -13 -12 3 -21 14 -8 17 -25 17
-109 0 -54 -3 -105 -6 -114 -5 -14 -40 -16 -288 -16 -154 0 -287 4 -295 9 -10
7 -15 37 -18 109 -3 84 -1 103 13 117 15 14 15 18 3 26 -17 10 -33 11 -42 2z"/>
<path d="M1719 5111 c12 -8 51 -4 51 5 0 2 -15 4 -32 4 -23 0 -29 -3 -19 -9z"/>
<path d="M1985 5110 c-16 -7 -17 -9 -3 -9 9 -1 20 4 23 9 7 11 7 11 -20 0z"/>
<path d="M2060 5110 c20 -13 50 -13 50 0 0 6 -15 10 -32 10 -25 0 -29 -3 -18
-10z"/>
<path d="M1868 5103 c6 -2 18 -2 25 0 6 3 1 5 -13 5 -14 0 -19 -2 -12 -5z"/>
<path d="M1763 5005 c0 -22 2 -30 4 -17 2 12 2 30 0 40 -3 9 -5 -1 -4 -23z"/>
<path d="M1910 5029 c0 -11 24 -39 34 -39 3 0 0 11 -6 25 -11 25 -28 34 -28
14z"/>
<path d="M2016 5004 c-3 -8 3 -32 14 -52 l19 -37 1 53 c0 38 -4 52 -14 52 -8
0 -17 -7 -20 -16z"/>
<path d="M1674 4982 c-8 -21 -8 -31 3 -40 11 -11 13 -6 13 28 0 22 -1 40 -3
40 -1 0 -7 -13 -13 -28z"/>
<path d="M1853 4944 c-22 -23 -15 -44 13 -44 20 0 24 3 16 13 -5 6 -11 19 -13
29 -3 13 -6 14 -16 2z"/>
</g>
</svg>
